<svg xmlns="http://www.w3.org/2000/svg" xmlns:xlink="http://www.w3.org/1999/xlink" width="473" height="468.618" viewBox="0 0 473 468.618">
  <defs>
    <linearGradient id="linear-gradient" x1="1.014" y1="0.163" x2="0.057" y2="0.163" gradientUnits="objectBoundingBox">
      <stop offset="0" stop-color="#e7e9fa"/>
      <stop offset="0.515" stop-color="#c6c9ec"/>
      <stop offset="1" stop-color="#d6d9ee"/>
    </linearGradient>
    <linearGradient id="linear-gradient-2" x1="-2.553" y1="1.65" x2="-2.556" y2="1.662" xlink:href="#linear-gradient"/>
    <linearGradient id="linear-gradient-3" x1="-3.533" y1="2.041" x2="-3.526" y2="2.041" gradientUnits="objectBoundingBox">
      <stop offset="0" stop-color="#fff"/>
      <stop offset="1" stop-color="#f5f6fd"/>
    </linearGradient>
    <linearGradient id="linear-gradient-4" x1="0.5" y1="0.176" x2="0.5" y2="0.915" gradientUnits="objectBoundingBox">
      <stop offset="0" stop-color="#324179"/>
      <stop offset="1" stop-color="#0c124d"/>
    </linearGradient>
    <linearGradient id="linear-gradient-5" x1="0.5" y1="0.176" x2="0.499" y2="0.915" xlink:href="#linear-gradient-4"/>
    <linearGradient id="linear-gradient-6" x1="1.226" y1="0.697" x2="0.23" y2="-0.196" xlink:href="#linear-gradient"/>
    <linearGradient id="linear-gradient-7" x1="1.057" y1="0.264" x2="0.148" y2="0.366" xlink:href="#linear-gradient"/>
    <linearGradient id="linear-gradient-8" x1="0.002" y1="0.453" x2="1.288" y2="0.082" gradientUnits="objectBoundingBox">
      <stop offset="0" stop-color="#03205d"/>
      <stop offset="1" stop-color="#8057a9"/>
    </linearGradient>
    <linearGradient id="linear-gradient-9" x1="0.499" y1="0.081" x2="0.501" y2="0.837" gradientUnits="objectBoundingBox">
      <stop offset="0" stop-color="#5a2d68"/>
      <stop offset="1" stop-color="#22043d"/>
    </linearGradient>
    <linearGradient id="linear-gradient-10" x1="0.657" y1="0.509" x2="0.395" y2="0.469" gradientUnits="objectBoundingBox">
      <stop offset="0" stop-color="#ff8a78"/>
      <stop offset="1" stop-color="#ffa799"/>
    </linearGradient>
    <linearGradient id="linear-gradient-11" x1="0.395" y1="0.489" x2="0.088" y2="1.02" gradientUnits="objectBoundingBox">
      <stop offset="0" stop-color="#e75979"/>
      <stop offset="1" stop-color="#fd9773"/>
    </linearGradient>
    <linearGradient id="linear-gradient-12" x1="0" y1="0.5" x2="1" y2="0.5" xlink:href="#linear-gradient-11"/>
    <linearGradient id="linear-gradient-13" x1="0.398" y1="0.535" x2="0.622" y2="0.759" xlink:href="#linear-gradient-10"/>
    <linearGradient id="linear-gradient-14" x1="0.662" y1="0.557" x2="0.49" y2="0.513" xlink:href="#linear-gradient-10"/>
    <linearGradient id="linear-gradient-15" x1="0.775" y1="0.091" x2="0.187" y2="0.901" xlink:href="#linear-gradient-11"/>
    <linearGradient id="linear-gradient-16" x1="1.437" y1="0.951" x2="1.605" y2="0.775" gradientUnits="objectBoundingBox">
      <stop offset="0" stop-color="#f29b5c"/>
      <stop offset="1" stop-color="#ffe58a"/>
    </linearGradient>
    <linearGradient id="linear-gradient-17" x1="1.52" y1="1.203" x2="0.861" y2="0.838" xlink:href="#linear-gradient-16"/>
    <linearGradient id="linear-gradient-18" x1="-8.663" y1="5.033" x2="-8.648" y2="5.033" gradientUnits="objectBoundingBox">
      <stop offset="0" stop-color="#03205d"/>
      <stop offset="1" stop-color="#8057a9" stop-opacity="0"/>
    </linearGradient>
    <linearGradient id="linear-gradient-19" x1="-38.919" y1="6.7" x2="-38.851" y2="6.7" xlink:href="#linear-gradient-8"/>
    <linearGradient id="linear-gradient-20" x1="-19.299" y1="11.426" x2="-19.265" y2="11.426" xlink:href="#linear-gradient-11"/>
    <linearGradient id="linear-gradient-21" x1="-19.038" y1="9.597" x2="-19.023" y2="9.597" xlink:href="#linear-gradient-18"/>
    <linearGradient id="linear-gradient-22" x1="-86.337" y1="13.153" x2="-86.269" y2="13.153" xlink:href="#linear-gradient-8"/>
    <linearGradient id="linear-gradient-23" x1="-42.873" y1="21.854" x2="-42.839" y2="21.854" xlink:href="#linear-gradient-11"/>
    <linearGradient id="linear-gradient-24" x1="-12.128" y1="5.426" x2="-12.114" y2="5.426" xlink:href="#linear-gradient-18"/>
    <linearGradient id="linear-gradient-25" x1="-60.124" y1="7.238" x2="-60.056" y2="7.238" xlink:href="#linear-gradient-8"/>
    <linearGradient id="linear-gradient-26" x1="-29.979" y1="12.224" x2="-29.945" y2="12.224" xlink:href="#linear-gradient-11"/>
    <radialGradient id="radial-gradient" cx="0.5" cy="0.5" r="0.706" gradientUnits="objectBoundingBox">
      <stop offset="0" stop-color="#c7cbe8"/>
      <stop offset="1" stop-color="#ecedf8"/>
    </radialGradient>
    <linearGradient id="linear-gradient-27" x1="0.644" y1="0.321" x2="0.217" y2="0.982" gradientUnits="objectBoundingBox">
      <stop offset="0" stop-color="#3773b9"/>
      <stop offset="1" stop-color="#003c76"/>
    </linearGradient>
    <linearGradient id="linear-gradient-28" x1="0.587" y1="0.35" x2="0.051" y2="0.693" xlink:href="#linear-gradient-27"/>
    <linearGradient id="linear-gradient-29" x1="0.201" y1="0.854" x2="0.66" y2="0.351" xlink:href="#linear-gradient-10"/>
    <linearGradient id="linear-gradient-30" x1="0.944" y1="0.059" x2="-0.083" y2="1.189" gradientUnits="objectBoundingBox">
      <stop offset="0" stop-color="#15b177"/>
      <stop offset="1" stop-color="#087b53"/>
    </linearGradient>
    <linearGradient id="linear-gradient-31" x1="0" y1="0.5" x2="1" y2="0.5" xlink:href="#linear-gradient-30"/>
    <linearGradient id="linear-gradient-32" x1="0.603" y1="0.301" x2="0.48" y2="0.661" xlink:href="#linear-gradient-10"/>
    <linearGradient id="linear-gradient-33" x1="0.555" y1="0.429" x2="0.25" y2="0.705" gradientUnits="objectBoundingBox">
      <stop offset="0" stop-color="#ffb89e"/>
      <stop offset="1" stop-color="#ffa799"/>
    </linearGradient>
    <linearGradient id="linear-gradient-35" x1="0" y1="0.5" x2="1" y2="0.5" xlink:href="#linear-gradient-9"/>
    <linearGradient id="linear-gradient-36" x1="1.001" y1="0.119" x2="0.284" y2="0.728" gradientUnits="objectBoundingBox">
      <stop offset="0" stop-color="#8a4791"/>
      <stop offset="1" stop-color="#562e65"/>
    </linearGradient>
    <linearGradient id="linear-gradient-37" x1="0.288" y1="0.705" x2="0.792" y2="0.272" xlink:href="#linear-gradient-10"/>
    <linearGradient id="linear-gradient-38" x1="1.081" y1="0.531" x2="-0.292" y2="0.389" xlink:href="#linear-gradient-30"/>
  </defs>
  <g id="Group_2486" data-name="Group 2486" transform="translate(-1169.729 -410.367)">
    <g id="Group_2434" data-name="Group 2434" transform="translate(1169.729 420.368)">
      <g id="Group_1770" data-name="Group 1770">
        <path id="Path_2072" data-name="Path 2072" d="M1169.888,722.019a3.629,3.629,0,0,0,2.1,2.921l416.474,74.129c.233.007.233-.231.466-.223.232-.231.466-.223.466-.461.233-.231.466-.461.466-.7h0a.861.861,0,0,0,.233-.707h0c0-.238.233-.469.233-.707v11.422h0v.713h0c0,.238,0,.238-.233.469a.226.226,0,0,1-.233.231h0l-.466.461h0l-.466.461-.233.231h0l-151.17,84.909a10.213,10.213,0,0,1-9.783-.31l-255.755-158.5a3.629,3.629,0,0,1-2.1-2.921Z" transform="translate(-1169.741 -443.755)" fill="url(#linear-gradient)"/>
        <path id="Path_2064" data-name="Path 2064" d="M1332.691,627.161a10.215,10.215,0,0,0-9.783-.311l-151.17,84.909c-2.563,1.585-2.8,3.956,0,5.711L1427.26,876.2a10.215,10.215,0,0,0,9.783.311l151.17-84.909a2.992,2.992,0,0,0,1.725-3.895,3.169,3.169,0,0,0-1.725-1.816Z" transform="translate(-1169.729 -436.291)" fill="url(#linear-gradient-2)"/>
        <path id="Path_2065" data-name="Path 2065" d="M1321.548,650.817q-1.047-.747,0-1.427l10.482-5.854a2.079,2.079,0,0,1,2.329.074l10.714,6.526q1.049.747,0,1.428l-10.481,5.854a2.081,2.081,0,0,1-2.329-.075Zm25.855,16.049a2.081,2.081,0,0,0,2.329.074l10.482-5.854q1.049-.681,0-1.428l-10.714-6.526a2.081,2.081,0,0,0-2.329-.074l-10.482,5.854q-1.048.681,0,1.428Zm15.374,9.53a2.081,2.081,0,0,0,2.329.074l10.481-5.854q1.049-.681,0-1.428l-10.714-6.526a2.081,2.081,0,0,0-2.329-.074l-10.482,5.854q-1.047.681,0,1.428Zm-61.027-1.936a2.081,2.081,0,0,0,2.329.074l10.481-5.854q1.049-.681,0-1.428l-10.714-6.526a2.081,2.081,0,0,0-2.329-.074l-10.482,5.854q-1.047.681,0,1.428Zm42.392,7.055,10.482-5.854q1.049-.679,0-1.427l-10.714-6.526a2.081,2.081,0,0,0-2.329-.075l-10.482,5.855q-1.048.679,0,1.427l10.714,6.526a3.88,3.88,0,0,0,2.329.074Zm-37.734-5.479q-1.049.679,0,1.427l10.714,6.526a2.079,2.079,0,0,0,2.329.074l10.482-5.854q1.047-.68,0-1.427l-10.715-6.526a2.079,2.079,0,0,0-2.329-.074Zm86.882,19.412a2.081,2.081,0,0,0,2.329.074l10.481-5.854q1.049-.681,0-1.428l-10.714-6.526a2.081,2.081,0,0,0-2.329-.074l-10.482,5.854q-1.047.681,0,1.428Zm-18.635,5.12,10.482-5.854q1.049-.681,0-1.428l-10.714-6.526a2.079,2.079,0,0,0-2.329-.074l-10.482,5.854q-1.047.681,0,1.427l10.714,6.527A3.9,3.9,0,0,0,1374.656,700.568Zm33.774,4.4a2.081,2.081,0,0,0,2.329.074l10.482-5.854q1.049-.681,0-1.428l-10.714-6.526a2.079,2.079,0,0,0-2.329-.074l-10.482,5.854q-1.048.681,0,1.427Zm-47.982-7.947q1.048-.681,0-1.428l-10.715-6.526A2.079,2.079,0,0,0,1347.4,689l-10.481,5.854q-1.049.681,0,1.428l10.714,6.526a2.081,2.081,0,0,0,2.329.074ZM1258.426,686.41a2.081,2.081,0,0,0-2.329-.074l-10.249,5.861q-1.049.681,0,1.428l12.578,7.776a2.081,2.081,0,0,0,2.329.074L1271,695.613q1.049-.681,0-1.428Zm131.6,9.649a2.079,2.079,0,0,0-2.329-.074l-10.482,5.854q-1.049.68,0,1.427l10.714,6.526a2.079,2.079,0,0,0,2.329.074l10.482-5.854q1.047-.68,0-1.427Zm33.774,18.2a2.079,2.079,0,0,0,2.329.074l10.481-5.854q1.049-.679,0-1.427l-10.714-6.526a2.081,2.081,0,0,0-2.329-.075l-10.482,5.855q-1.047.679,0,1.427Zm-47.983-7.709q1.048-.681,0-1.427l-10.714-6.526a2.081,2.081,0,0,0-2.329-.075l-10.482,5.854q-1.049.681,0,1.428l10.714,6.526a2.079,2.079,0,0,0,2.329.074Zm-106.913-5.3a2.082,2.082,0,0,0-2.33-.074l-3.261,1.8q-1.048.681,0,1.427l12.579,7.775a2.079,2.079,0,0,0,2.329.074l3.261-1.8q1.047-.681,0-1.428Zm136.262,4.324a2.081,2.081,0,0,0-2.329-.074l-10.481,5.854q-1.049.681,0,1.428l10.714,6.526a2.081,2.081,0,0,0,2.329.074l10.482-5.854q1.048-.681,0-1.428Zm-37.5,8.328q-1.048.681,0,1.428l10.714,6.526a2.081,2.081,0,0,0,2.329.074l10.482-5.854q1.049-.681,0-1.428l-10.714-6.526a2.081,2.081,0,0,0-2.329-.074Zm-74.071-5.919a2.081,2.081,0,0,0-2.329-.074l-10.249,5.861q-1.049.681,0,1.428l12.578,7.775a2.081,2.081,0,0,0,2.329.074l10.249-5.861q1.049-.681,0-1.428Zm126.946,7.121a2.079,2.079,0,0,0-2.329-.074l-10.482,5.854q-1.049.681,0,1.427l10.714,6.527a2.081,2.081,0,0,0,2.329.074l10.482-5.854q1.047-.681,0-1.428Zm-60.561,13.307a2.079,2.079,0,0,0,2.329.074l10.481-5.854q1.049-.679,0-1.427l-10.714-6.526a2.081,2.081,0,0,0-2.329-.075l-10.482,5.854q-1.048.681,0,1.428Zm94.335,4.9a2.082,2.082,0,0,0,2.329.074l10.481-5.854q1.049-.681,0-1.428l-10.714-6.526a2.079,2.079,0,0,0-2.329-.074L1443.6,725.36q-1.048.681,0,1.427Zm-18.635-8.681a2.081,2.081,0,0,0-2.329-.075l-10.481,5.854q-1.049.681,0,1.428l10.714,6.526a2.079,2.079,0,0,0,2.329.074l10.482-5.854q1.048-.681,0-1.427Zm-47.75,7.526q1.049-.681,0-1.428l-10.714-6.526a2.081,2.081,0,0,0-2.329-.074l-10.482,5.854q-1.047.681,0,1.428l10.714,6.526a2.081,2.081,0,0,0,2.329.074Zm81.757,10.684a2.079,2.079,0,0,0,2.329.074l10.482-5.854q1.047-.681,0-1.427l-10.714-6.526a2.083,2.083,0,0,0-2.33-.075l-10.481,5.854q-1.049.681,0,1.428Zm-71.509-9.883q-1.048.681,0,1.428l10.714,6.526a2.081,2.081,0,0,0,2.33.074l10.481-5.854q1.049-.681,0-1.427l-10.714-6.526a2.081,2.081,0,0,0-2.329-.075Zm52.875.964a2.081,2.081,0,0,0-2.329-.074l-10.482,5.854q-1.049.681,0,1.428l10.714,6.526a2.081,2.081,0,0,0,2.329.074l10.482-5.854q1.047-.681,0-1.428ZM1326.44,728.3a2.081,2.081,0,0,0-2.329-.074l-10.482,5.854q-1.047.681,0,1.428l13.743,8.526a2.081,2.081,0,0,0,2.329.074l10.482-5.854q1.047-.681,0-1.428Zm86.882,14.178q-1.047.681,0,1.428l10.714,6.526a2.081,2.081,0,0,0,2.329.074l10.482-5.854q1.048-.681,0-1.428l-10.714-6.526a2.081,2.081,0,0,0-2.329-.074Zm-45.886,8.775a2.079,2.079,0,0,0,2.329.074l10.481-5.854q1.049-.679,0-1.427l-10.715-6.526a2.079,2.079,0,0,0-2.329-.074l-10.481,5.854q-1.049.679,0,1.427Zm98.994-7.8a2.079,2.079,0,0,0-2.329-.074l-10.482,5.854q-1.047.681,0,1.427l10.714,6.527a2.081,2.081,0,0,0,2.329.074l10.482-5.854q1.049-.681,0-1.428ZM1500.2,761.9a2.081,2.081,0,0,0,2.329.075l10.482-5.854q1.047-.681,0-1.428l-10.714-6.526a2.079,2.079,0,0,0-2.329-.074l-10.482,5.854q-1.049.681,0,1.427Zm-71.509-9.882q-1.048.681,0,1.427l10.715,6.526a2.081,2.081,0,0,0,2.329.075l10.481-5.854q1.049-.681,0-1.428l-10.714-6.526a2.079,2.079,0,0,0-2.329-.074Zm52.875,14.764,10.481-5.854q1.049-.681,0-1.427l-10.714-6.527a2.083,2.083,0,0,0-2.329-.074l-10.482,5.854q-1.048.681,0,1.428l10.715,6.526a2.061,2.061,0,0,0,2.329.074Zm33.774,4.4a2.079,2.079,0,0,0,2.329.074l10.481-5.854q1.049-.681,0-1.427l-10.714-6.527a2.082,2.082,0,0,0-2.329-.074l-10.481,5.854q-1.049.681,0,1.428Zm-71.509-9.883q-1.048.681,0,1.428l10.714,6.526a2.079,2.079,0,0,0,2.329.074l10.482-5.854q1.048-.681,0-1.427l-10.714-6.527a2.082,2.082,0,0,0-2.329-.074Zm-45.886,8.776a2.081,2.081,0,0,0,2.329.074l10.481-5.854q1.049-.681,0-1.428l-10.714-6.526a2.081,2.081,0,0,0-2.329-.074l-10.481,5.854q-1.049.681,0,1.428Zm98.994-7.567a2.081,2.081,0,0,0-2.329-.074l-10.482,5.854q-1.047.681,0,1.428l10.714,6.526a2.081,2.081,0,0,0,2.329.074l10.482-5.854q1.049-.681,0-1.428ZM1482.734,773q1.049-.681,0-1.428l-10.714-6.526a2.081,2.081,0,0,0-2.329-.074l-10.482,5.854q-1.048.681,0,1.428l10.714,6.526a2.082,2.082,0,0,0,2.33.074Zm-8.152,7.356q-1.049.681,0,1.427l10.714,6.526a2.081,2.081,0,0,0,2.329.075l10.481-5.854q1.049-.681,0-1.428l-10.714-6.526a2.079,2.079,0,0,0-2.329-.074Zm-46.12,8.768a2.081,2.081,0,0,0,2.329.074l10.481-5.854q1.049-.681,0-1.428l-10.714-6.526a2.08,2.08,0,0,0-2.329-.074l-10.481,5.854q-1.049.681,0,1.428Zm119.724-12.619a2.079,2.079,0,0,0-2.329-.074l-10.482,5.854q-1.048.681,0,1.427l20.265,12.541a2.081,2.081,0,0,0,2.329.074l10.482-5.854q1.047-.681,0-1.428Zm-34.939,15.547q1.049-.681,0-1.427l-10.714-6.527a2.081,2.081,0,0,0-2.329-.074l-10.482,5.854q-1.047.681,0,1.428l10.715,6.526a2.081,2.081,0,0,0,2.33.074Zm-168.406-52.218a2.079,2.079,0,0,0-2.329-.074l-10.482,5.854q-1.047.681,0,1.427l83.621,51.908a2.081,2.081,0,0,0,2.329.074l10.482-5.854q1.048-.681,0-1.428ZM1542.6,790.842a2.081,2.081,0,0,0-2.329-.074l-10.482,5.854q-1.049.681,0,1.428l10.714,6.526a2.081,2.081,0,0,0,2.329.074l10.482-5.854q1.047-.681,0-1.428Zm-47.751,7.765q1.049-.681,0-1.428l-10.714-6.526a2.079,2.079,0,0,0-2.329-.074l-10.482,5.854q-1.047.681,0,1.427l10.715,6.526a2.081,2.081,0,0,0,2.329.075Zm-35.638,9.576a2.079,2.079,0,0,0,2.329.074l10.482-5.854q1.047-.681,0-1.427l-10.714-6.526a2.081,2.081,0,0,0-2.329-.075l-10.482,5.854q-1.047.681,0,1.428Zm58.7-14.794a2.081,2.081,0,0,0-2.329-.074L1505.1,799.17q-1.049.681,0,1.428l20.264,12.54a2.081,2.081,0,0,0,2.329.074l10.482-5.854q1.049-.681,0-1.428Zm-84.785,1.355a2.079,2.079,0,0,0-2.329-.074l-10.482,5.854q-1.048.681,0,1.427l13.743,8.526a2.079,2.079,0,0,0,2.329.074l10.482-5.854q1.048-.681,0-1.427Zm43.557,9a2.081,2.081,0,0,0-2.329-.074l-10.482,5.854q-1.047.681,0,1.428l31.213,19.312a2.079,2.079,0,0,0,2.329.074l10.482-5.854q1.047-.681,0-1.427Zm-10.016,11.818a2.081,2.081,0,0,0-2.329-.074l-10.481,5.854q-1.049.681,0,1.428l10.714,6.526a2.081,2.081,0,0,0,2.329.074l10.482-5.854q1.047-.681,0-1.428Zm-139.988-143.64a2.081,2.081,0,0,0,2.329.074l10.481-5.854q1.049-.681,0-1.428l-20.265-12.54a2.079,2.079,0,0,0-2.329-.074l-10.481,5.854q-1.049.681,0,1.427Zm51.243,14a2.079,2.079,0,0,0,2.329.074l10.482-5.854q1.049-.679,0-1.427l-10.714-6.526a2.079,2.079,0,0,0-2.329-.074l-10.482,5.854q-1.048.679,0,1.427Zm-18.4,5.127L1370,685.191q1.049-.681,0-1.428l-10.714-6.526a2.081,2.081,0,0,0-2.329-.074l-10.482,5.854q-1.048.681,0,1.428l10.715,6.526a3.88,3.88,0,0,0,2.329.074Zm-60.794-.5a2.081,2.081,0,0,0,2.329.074l10.482-5.854q1.047-.681,0-1.428l-22.827-14.049a2.081,2.081,0,0,0-2.329-.074l-10.249,5.861q-1.048.681,0,1.428Zm46.586-3.043q1.047-.681,0-1.428l-10.715-6.526a2.081,2.081,0,0,0-2.329-.074l-10.482,5.854q-1.049.681,0,1.428l10.714,6.526a2.081,2.081,0,0,0,2.329.074Zm-31.213,12.572a2.079,2.079,0,0,0,2.329.074l10.482-5.854q1.049-.679,0-1.427l-10.714-6.526a2.079,2.079,0,0,0-2.329-.074l-10.482,5.854q-1.047.679,0,1.427Zm-40.3-22.456a2.081,2.081,0,0,0-2.329-.074l-10.482,5.854q-1.047.681,0,1.428l30.281,18.806a2.079,2.079,0,0,0,2.329.074l10.482-5.854q1.048-.681,0-1.427Zm55.437,31.978a2.081,2.081,0,0,0,2.329.074l10.482-5.854q1.047-.681,0-1.428l-10.714-6.526a2.081,2.081,0,0,0-2.329-.074l-10.482,5.854q-1.049.681,0,1.428ZM1276.128,697.2a2.079,2.079,0,0,0-2.329-.074l-3.028,1.807q-1.049.681,0,1.428l12.578,7.775a2.08,2.08,0,0,0,2.329.074l3.028-1.808q1.049-.679,0-1.427Zm30.281,15.951a2.081,2.081,0,0,0,2.329.074l10.481-5.854q1.049-.681,0-1.428L1308.5,699.42a2.081,2.081,0,0,0-2.329-.074l-10.481,5.854q-1.049.681,0,1.428Zm38.2,5.733a2.081,2.081,0,0,0,2.329.074l10.482-5.854q1.049-.681,0-1.428l-10.714-6.526a2.081,2.081,0,0,0-2.329-.074l-10.482,5.854q-1.047.681,0,1.428Zm94.569,4.9a2.081,2.081,0,0,0,2.329.074l10.482-5.854q1.047-.681,0-1.428l-10.716-6.526a2.081,2.081,0,0,0-2.329-.074l-10.481,5.854q-1.049.681,0,1.428ZM1334.593,716.9q1.048-.681,0-1.428l-10.715-6.526a2.079,2.079,0,0,0-2.329-.074l-10.481,5.854q-1.049.681,0,1.427l.232.245,10.249,6.274a2.081,2.081,0,0,0,2.329.075Zm48.216,6.526q-1.049.681,0,1.427l10.714,6.527a2.081,2.081,0,0,0,2.329.074l10.482-5.854q1.048-.681,0-1.428l-10.714-6.526a2.079,2.079,0,0,0-2.329-.074Zm-33.076,3q1.049-.681,0-1.427l-10.715-6.527a2.081,2.081,0,0,0-2.329-.074l-10.481,5.854q-1.049.681,0,1.428l10.714,6.526a2.079,2.079,0,0,0,2.329.074Zm-38.665-7.413a2.079,2.079,0,0,0-2.329-.074l-10.482,5.854q-1.047.679,0,1.427l10.482,6.519a2.079,2.079,0,0,0,2.329.074l10.481-5.854q1.049-.679,0-1.427Zm41.228,22.723a2.081,2.081,0,0,0,2.329.074l10.482-5.854q1.048-.681,0-1.428L1354.391,728a2.081,2.081,0,0,0-2.329-.074l-10.481,5.854q-1.049.681,0,1.428Zm51.011-.047q1.049-.681,0-1.428l-10.714-6.526a2.079,2.079,0,0,0-2.329-.074l-10.482,5.854q-1.048.681,0,1.427l10.715,6.527a2.081,2.081,0,0,0,2.329.074Zm81.525,10.677a2.08,2.08,0,0,0,2.329.074l10.481-5.854q1.049-.681,0-1.428l-10.714-6.526a2.081,2.081,0,0,0-2.329-.074l-10.481,5.854q-1.049.681,0,1.428Zm-66.385-1.155q1.049-.681,0-1.427l-10.714-6.527a2.082,2.082,0,0,0-2.329-.074l-10.482,5.854q-1.047.681,0,1.428l10.714,6.526a2.079,2.079,0,0,0,2.329.074Zm-35.638,9.577a2.081,2.081,0,0,0,2.329.074l10.482-5.854q1.048-.681,0-1.428l-10.715-6.526a2.081,2.081,0,0,0-2.329-.074l-10.481,5.854q-1.049.681,0,1.428Zm51.011-.285q1.049-.681,0-1.428l-10.714-6.526a2.081,2.081,0,0,0-2.329-.074l-10.482,5.854q-1.048.681,0,1.428l10.715,6.526a2.081,2.081,0,0,0,2.329.074Zm15.374,9.53q1.047-.681,0-1.428l-10.715-6.526a2.079,2.079,0,0,0-2.329-.074l-10.481,5.854q-1.049.681,0,1.427l10.714,6.527a2.083,2.083,0,0,0,2.329.074Zm81.524,10.677a2.081,2.081,0,0,0,2.329.074l10.482-5.854q1.047-.681,0-1.428l-10.714-6.526a2.082,2.082,0,0,0-2.33-.074L1520,772.755q-1.049.681,0,1.428Zm-117.4-1.108a2.079,2.079,0,0,0,2.329.074l10.482-5.854q1.048-.679,0-1.427l-10.714-6.526a2.082,2.082,0,0,0-2.33-.075l-10.481,5.855q-1.049.679,0,1.427Zm98.994,6.235,10.482-5.854q1.047-.681,0-1.428l-10.714-6.526a2.079,2.079,0,0,0-2.329-.074l-10.482,5.854q-1.049.679,0,1.427l10.714,6.526A2.063,2.063,0,0,0,1512.316,785.837Zm-47.983-6.282q1.049-.681,0-1.427l-10.714-6.527a2.083,2.083,0,0,0-2.329-.074l-10.482,5.854q-1.048.681,0,1.428l10.715,6.526a2.079,2.079,0,0,0,2.329.074Zm73.606,9.95q1.047-.681,0-1.428l-10.715-6.526a2.081,2.081,0,0,0-2.329-.074l-10.481,5.854q-1.049.681,0,1.428l10.714,6.526a2.081,2.081,0,0,0,2.329.074Zm-71.043,5.36a2.081,2.081,0,0,0,2.329.074l10.482-5.854q1.047-.681,0-1.428l-10.715-6.526a2.081,2.081,0,0,0-2.329-.074l-10.481,5.854q-1.049.681,0,1.428Zm-10.249-1.991q1.048-.681,0-1.428l-10.714-6.526a2.079,2.079,0,0,0-2.329-.074l-10.482,5.854q-1.049.681,0,1.427l10.714,6.527a2.081,2.081,0,0,0,2.329.074Zm42.858,7.308a2.081,2.081,0,0,0-2.329-.074l-10.481,5.854q-1.049.681,0,1.428l23.292,14.54a2.081,2.081,0,0,0,2.329.074l10.482-5.854q1.047-.681,0-1.428Zm-47.982,5.854a2.081,2.081,0,0,0-2.329-.074l-10.482,5.854q-1.049.681,0,1.428l10.714,6.526a2.081,2.081,0,0,0,2.329.074l10.482-5.854q1.047-.681,0-1.428Zm-100.159-40.059a5.858,5.858,0,0,0-4.892-.155l-31.677,17.793a1.444,1.444,0,0,0-.99,1.813,1.538,1.538,0,0,0,.99,1.042l67.315,41.873a5.859,5.859,0,0,0,4.892.155L1418.68,810.7a1.445,1.445,0,0,0,.99-1.813,1.54,1.54,0,0,0-.99-1.042Zm130.672,59.112a2.081,2.081,0,0,0-2.329-.075l-10.482,5.854q-1.049.681,0,1.428l10.714,6.526a2.079,2.079,0,0,0,2.329.074l10.482-5.854q1.047-.681,0-1.427Z" transform="translate(-1175.59 -437.645)" opacity="0.65" fill="url(#linear-gradient-3)" style="mix-blend-mode: normal;isolation: isolate"/>
        <g id="Group_1767" data-name="Group 1767" transform="translate(175.308 349.207)">
          <g id="Group_1760" data-name="Group 1760" transform="translate(0 7.143)">
            <path id="Path_2066" data-name="Path 2066" d="M1370.719,809.915a31.557,31.557,0,0,1-10.482-.57l-.233-.007c-.232-.007-.232-.245-.232-.483s.466-.461.932-.208a27.523,27.523,0,0,0,9.783.548,29.046,29.046,0,0,0,8.153-2.359.69.69,0,0,1,.932.03h0c.232.245.232.483-.233.707A44.65,44.65,0,0,1,1370.719,809.915Z" transform="translate(-1359.771 -806.668)" fill="#fff"/>
          </g>
          <g id="Group_1761" data-name="Group 1761" transform="translate(3.261 2.08)">
            <path id="Path_2067" data-name="Path 2067" d="M1382.639,811.524c-2.563,1.109-4.892,2.225-5.124,4.121,0,.238-.466.461-.932.446-.233-.007-.233-.007-.466-.253-.233-.007-.233-.245-.233-.483.466-2.126,3.028-3.473,5.59-4.819,3.029-1.332,5.59-2.679,4.892-5.08a5.369,5.369,0,0,0-1.863-2.2,8.9,8.9,0,0,0-3.727-1.307,17.059,17.059,0,0,0-6.988.968c-1.165.2-2.329.64-3.494.84a20.409,20.409,0,0,1-6.522.031l-.233-.007c-.232-.007-.232-.245-.232-.483s.466-.461.932-.208a16.17,16.17,0,0,0,5.824-.053,16.527,16.527,0,0,0,3.261-.849,19.142,19.142,0,0,1,7.686-.945,12.36,12.36,0,0,1,4.659,1.576,5.131,5.131,0,0,1,2.329,2.691C1388.7,808.623,1385.667,810.193,1382.639,811.524Z" transform="translate(-1363.306 -801.179)" fill="#fff"/>
          </g>
          <g id="Group_1766" data-name="Group 1766" transform="translate(0.466)">
            <g id="Group_1762" data-name="Group 1762" transform="translate(5.824)">
              <path id="Path_2068" data-name="Path 2068" d="M1391.045,808.753a14.128,14.128,0,0,1-5.59,4.106,25.466,25.466,0,0,0-3.727,2.023,1.02,1.02,0,0,1-1.164-.037h0c-.233-.245-.233-.482,0-.475a21.135,21.135,0,0,1,3.959-2.255,14.955,14.955,0,0,0,5.358-3.637c1.164-2.1,0-4.758-2.8-6.513a1.815,1.815,0,0,0-.932-.506,17.556,17.556,0,0,0-12.578-.637,15.587,15.587,0,0,1-6.289.991c-.232-.007-.232-.007-.466-.253-.232-.007-.232-.245-.232-.483s.466-.461.932-.447a15.566,15.566,0,0,0,5.357-.781,19.5,19.5,0,0,1,14.209.926c.466.253.7.5,1.164.751C1391.045,803.281,1392.443,806.418,1391.045,808.753Z" transform="translate(-1366.589 -798.925)" fill="#fff"/>
            </g>
            <g id="Group_1763" data-name="Group 1763" transform="translate(2.096 13.611)">
              <path id="Path_2069" data-name="Path 2069" d="M1367.906,814.646c-.232.231-.232.945-.466,1.651,0,.238-.466.46-.7.453s-.466-.015-.466-.253a.244.244,0,0,1-.233-.244h0a4.2,4.2,0,0,1,.233-1.421,15.209,15.209,0,0,1-3.262-.341l-.232-.007c-.233-.007-.233-.245-.233-.483s.466-.461.933-.208a18.578,18.578,0,0,0,3.727.356.867.867,0,0,1,.7.26h0Z" transform="translate(-1362.548 -813.68)" fill="#fff"/>
            </g>
            <g id="Group_1764" data-name="Group 1764" transform="translate(0.466 4.428)">
              <path id="Path_2070" data-name="Path 2070" d="M1373.825,815.97h0a.606.606,0,0,1-.523.7.623.623,0,0,1-.176-.005c-.233-.007-.466-.015-.466-.253a.245.245,0,0,1-.233-.245h0v-.238c0-2.38,2.329-4.447,6.522-6.455h0a28.231,28.231,0,0,0,2.8-1.577c.7-.454.7-1.4-.232-2.148a.245.245,0,0,1-.233-.245h0a7.494,7.494,0,0,0-3.959-.6,16.452,16.452,0,0,0-3.261.848,20.452,20.452,0,0,1-6.755,1.214,17.12,17.12,0,0,1-6.056-.669l-.233-.007c-.232-.245-.232-.245-.232-.482a1.344,1.344,0,0,1,.932-.208,18.233,18.233,0,0,0,5.124.4,24.652,24.652,0,0,0,6.289-1.229,12.144,12.144,0,0,1,3.494-.84,8.689,8.689,0,0,1,5.59.653l.233.245a1.857,1.857,0,0,1,.813,2.426,1.7,1.7,0,0,1-.581.674,20.334,20.334,0,0,1-3.028,1.808h0C1375.921,811.991,1374.058,813.835,1373.825,815.97Z" transform="translate(-1360.781 -803.724)" fill="#fff"/>
            </g>
            <g id="Group_1765" data-name="Group 1765" transform="translate(0 11.641)">
              <path id="Path_2071" data-name="Path 2071" d="M1372.621,812.494a6.048,6.048,0,0,0-2.1,4.217c0,.238-.466.461-.7.454s-.466-.015-.466-.253a.245.245,0,0,1-.233-.245h0a5.756,5.756,0,0,1,1.631-3.755,35.49,35.49,0,0,1-10.016-.556l-.233-.007c-.232-.007-.232-.245-.232-.483s.466-.461.932-.208a42.169,42.169,0,0,0,10.948.348l.7.022C1372.854,812.263,1372.621,812.256,1372.621,812.494Z" transform="translate(-1360.276 -811.544)" fill="#fff"/>
            </g>
          </g>
        </g>
        <g id="Group_2409" data-name="Group 2409" transform="translate(239.589 47.221)">
          <path id="Path_4771" data-name="Path 4771" d="M1512.094,542.619c.275.16.648.276,1.088.505,1.431,3.444,1.972,4.454,1.689,4.8-.23.279-.2.13-.327.822-.168.944,3.142,5.028,3.652,6.325a4.712,4.712,0,0,1,.115,3.437,17.772,17.772,0,0,1-3.524,5.973c-1.312,1.476-2.76,2.415-4.018,2.132-1.55-.349-1.286-1.74-1.054-3.114.083-.492,1.018-1.579.946-2.063-.415-2.757-2.431-5.162-3.911-7.549-1.271-1.183-3.409-2.425-4.595-3.793-1.711-1.975-2.034-4.053.09-5.263.678-.386,2.385-2.306,3.258-2.234C1507.177,542.732,1509.979,541.381,1512.094,542.619Z" transform="translate(-1454.362 -487.026)" fill="#202249"/>
          <path id="Path_4772" data-name="Path 4772" d="M1450.957,530.472c-1.151,3.135-.254,5.915,2.264,7.112l.05.047c.1.036.2.071.306.106a6.3,6.3,0,0,0,.826.26c3.015.894,7.52,1.707,10.275,2.232,10.99,2.1,27.366,3.408,35.057,6.344,3.017-2.216,3.91-6.33,1.936-8.8-8.389-4-19.721-9.191-24.473-10.952a13.632,13.632,0,0,0-3.968-.667c7.08-6.384,14.578-13.3,17.491-19.192,2.063-4.171,2.395-9.964,3.83-13.588-11.557,3.383-13.77-3.591-15.893-6.043-1.82,2.669-1.777,2.175-3.62,5.028-6.231,9.649-15.419,23.33-21.668,33.492A16.254,16.254,0,0,0,1450.957,530.472Z" transform="translate(-1450.462 -482.781)" fill="url(#linear-gradient-4)"/>
          <path id="Path_4773" data-name="Path 4773" d="M1489.511,531.732c-4.714-2.132-8.99-3.988-11.471-4.907a13.632,13.632,0,0,0-3.968-.667c7.08-6.384,14.578-13.3,17.491-19.192,2.063-4.171,2.395-9.964,3.83-13.588a16.935,16.935,0,0,1-7.75.725l.312,2.257c-8.917,8.88-25.134,29.514-26.644,42.989,5.452,1.269,20.34,3.18,22.728,3.447.623-4,3.234-7.182,5.471-11.065Zm-8.128-41.767c-.749-1.01-1.319-1.979-1.883-2.63-1.159,1.7-1.562,2.116-2.177,2.931Z" transform="translate(-1451.303 -482.781)" fill="#1e2353" opacity="0.3" style="mix-blend-mode: multiply;isolation: isolate"/>
          <path id="Path_4774" data-name="Path 4774" d="M1489.956,590.82c1.624,2.251-2.755,13.549-3.821,15.928-.939,2.1-.64,3.386,1.584,3.419,1.753.027,4.536-2.457,6.231-4.081,3.181-3.048,3.363-6.152,4.286-7.475l1.084-.348c.791-.447,3.136-3.506,3.263-4.664a25.523,25.523,0,0,0-1.208-3.146c-1.73-3.195-2.11-1.8-4.389-3.75C1494.384,588.587,1496.229,589.34,1489.956,590.82Z" transform="translate(-1453.189 -490.485)" fill="#202249"/>
          <path id="Path_4775" data-name="Path 4775" d="M1467.739,544.011c4.748,9.192,16.557,29.917,20.727,39.132,3.678.776,7.406-1.373,7.729-4.265-2.684-8.834-7.041-23.378-9.2-28.015a61.713,61.713,0,0,0-6.476-10.27c7.015-9.815,18.129-25.267,21.339-34.325,4.366-12.322-.645-19.354-7.374-23.226-2.391-1.375-4.966.83-6.182-.644a98.437,98.437,0,0,0-7.145,20.08c-2.344,9.561-13.517,29.851-14.362,36.674a7.393,7.393,0,0,0,.672,3.859C1467.541,543.334,1467.628,543.667,1467.739,544.011Z" transform="translate(-1451.727 -482.398)" fill="url(#linear-gradient-5)"/>
        </g>
        <g id="Group_1769" data-name="Group 1769" transform="translate(155.276 0.617)">
          <path id="Path_2075" data-name="Path 2075" d="M1344.579,425.171a2.1,2.1,0,0,0-1.164-.275l-1.165-.037c-.466-.015-.7.216-1.164.439l7.081-3.815h0c.233.007.233-.231.466-.223s.233.007.466-.222l1.63.052a.866.866,0,0,1,.7.26l.7.022c.232.245.7.26.932.505l250.629,155.716c.466.253.932.744,1.4,1,.232.007.232.245.466.491s.466.491.7.5l.233.245.233.245.233.245.7.736.232.245v.238l.234.245c.232.245.232.482.466.728s.232.483.466.729h0c0,.238.232.245.232.483s.234.483.234.721a.866.866,0,0,0,.232.483h0c0,.238.234.483.234.721s.232.483.232.721v.713c0,.238.233.483.233.959v2.38l-.466,176.54a8.13,8.13,0,0,1-4.193,7.243l-2.656,1.577L1346.21,425.936l-1.4-.758Z" transform="translate(-1338.291 -421.037)" fill="url(#linear-gradient-6)"/>
          <path id="Path_2073" data-name="Path 2073" d="M1596.6,581.969a17.185,17.185,0,0,1,7.221,13.078l-.466,181.538-265.3-164.748.466-181.537c0-4.759,3.261-6.559,7.22-4.054Z" transform="translate(-1338.056 -421.353)" fill="url(#linear-gradient-7)"/>
          <g id="Group_1768" data-name="Group 1768" transform="translate(12.111 25.562)">
            <path id="Path_2074" data-name="Path 2074" d="M1351.652,452.979l-.466,146.321a13.227,13.227,0,0,0,6.289,11.383l228.036,141.675a4.263,4.263,0,0,0,5.974-1.565,4.458,4.458,0,0,0,.548-2.035l.466-146.8a12.919,12.919,0,0,0-5.823-10.654l-228.5-141.927a4.263,4.263,0,0,0-5.974,1.564A4.451,4.451,0,0,0,1351.652,452.979Z" transform="translate(-1351.185 -448.747)" fill="url(#linear-gradient-8)"/>
          </g>
        </g>
        <g id="Group_2416" data-name="Group 2416" transform="translate(210.204 -10)">
          <g id="Group_2414" data-name="Group 2414">
            <path id="Path_4776" data-name="Path 4776" d="M1422.257,427.705c-6.55,3.844-3.411,12.726,2.54,22.116,8.444,13.323-11.993,28.32,15.786,35.906-2.894-8.131,9.144-11.107,15.06-22.209,6.825-12.81,3.041-25.661-5.727-36.6C1442.777,418,1429.715,418.116,1422.257,427.705Z" transform="translate(-1418.607 -420.368)" fill="url(#linear-gradient-9)"/>
            <g id="Group_2411" data-name="Group 2411" transform="translate(14.457 22.386)">
              <path id="Path_4777" data-name="Path 4777" d="M1436.6,518.626l1.6,6.038c.5,1.294.805,1.642,2.664.8,1.014-.493.695-2.607.414-4.15a9.08,9.08,0,0,1,.069-3.813,3.132,3.132,0,0,1,1.167-1.588c1.109-.891,2.409-1.487,1.609-4.321a14.7,14.7,0,0,1-.348-4.117l-3.871-.256c.088,3.454-1.446,5.784-3.044,8.69C1436.089,517.319,1436.259,517.055,1436.6,518.626Z" transform="translate(-1434.437 -449.487)" fill="url(#linear-gradient-10)"/>
              <g id="Group_2410" data-name="Group 2410">
                <path id="Path_4778" data-name="Path 4778" d="M1450.225,475.441l-.028-.194a3.278,3.278,0,0,0-.122-.831c-.983-6.568-2.982-17.635-4.54-23.408-2.718-10.079-11.344-6.6-11.255-.58.084,5.691,5.378,18.015,6.6,23.354-.434,3.89-2.058,23.318-1.5,26.712a7.416,7.416,0,0,1,.36,1.779,6.418,6.418,0,0,1-.33,1.4c1.525.2,3.048.418,4.547.77a9.482,9.482,0,0,1,.227-1.512c.26-.731.931-1.105,1.233-1.724,1.486-3.043,3.944-19.014,4.622-24.211A6.483,6.483,0,0,0,1450.225,475.441Z" transform="translate(-1434.279 -444.635)" fill="url(#linear-gradient-11)"/>
                <path id="Path_4779" data-name="Path 4779" d="M1449.1,482.049a30.508,30.508,0,0,0,1.224-7.671c-.015-4-1.527-7.314-2-9.857L1434.347,450.6c.089,2.608,3.131,9.553,4.378,14.681C1440.671,473.28,1444.9,480.168,1449.1,482.049Z" transform="translate(-1434.285 -445.097)" fill="#3469c0" opacity="0.35" style="mix-blend-mode: multiply;isolation: isolate"/>
              </g>
            </g>
            <path id="Path_4780" data-name="Path 4780" d="M1492.356,482.435c-1.972,6.518-11.23,11.656-20.507,9.614-2.215-2.463-2.873-1.7-4.9-3.683-1.844-1.808-4.119-4.279-7.3-7.508-1.77-2.778-8.752-3.914-11.832-5.123-3.48-1.365-6.569-4.21-8.008-9.739-.7-2.682-3.736-10.886-4.828-13.62-3.159-7.906,3.693-10.861,8.327-7.934a85.165,85.165,0,0,0,12.745,3.4,53.447,53.447,0,0,0,5.654.84c3.85.373,8.031,3.183,11.019,5.563C1480.757,460.637,1491.652,473.494,1492.356,482.435Z" transform="translate(-1419.814 -422.148)" fill="url(#linear-gradient-12)"/>
            <g id="Group_2413" data-name="Group 2413" transform="translate(6.585 14.411)">
              <path id="Path_4781" data-name="Path 4781" d="M1446.337,441.077a19.653,19.653,0,0,0,5.516,9.3c-.981,3.509-7.68,6.039-9.811,3.668a12.3,12.3,0,0,0-.621-1.861c-.351-1.029-.7-1.932-1-2.654Z" transform="translate(-1426.883 -436.384)" fill="url(#linear-gradient-13)"/>
              <g id="Group_2412" data-name="Group 2412">
                <path id="Path_4782" data-name="Path 4782" d="M1425.745,435.99a11.37,11.37,0,0,0,3.479,7.213,3.344,3.344,0,0,1,.969,1.612c.872,3.187,1.558,3.837,3.6,5.294,1.988,1.417,2.732,2.4,3.865,2.517a4.69,4.69,0,0,0,3.092-1.119c1.745-1.25,3.7-4.67,4.621-6.928.681-1.673.259-2.094-.172-3.682.5-2.922-1.517-3.108-2.19-2.746-1.93,1.036-.634,3.174-1.275,4.4C1434.949,444.054,1427.931,437.971,1425.745,435.99Z" transform="translate(-1425.745 -435.99)" fill="#ffa698"/>
                <path id="Path_4783" data-name="Path 4783" d="M1425.745,435.99c3.769,6.275,12.066,7.859,15.989,6.566C1434.949,444.054,1427.931,437.971,1425.745,435.99Z" transform="translate(-1425.745 -435.99)" fill="#ff9080"/>
              </g>
            </g>
            <path id="Path_4784" data-name="Path 4784" d="M1471.936,491.126a1.472,1.472,0,0,1-.171.034,13.052,13.052,0,0,1-3.142-2.107c-1.844-1.808-4.119-4.279-7.3-7.508-.9-1.416-3.158-2.4-5.561-3.194.38-6.491.212-21.324,2.341-23.254,2.936-2.663,6.978-4.433,10.35-.968C1474.819,460.671,1468.479,484.886,1471.936,491.126Z" transform="translate(-1421.487 -422.836)" fill="#3469c0" opacity="0.35" style="mix-blend-mode: multiply;isolation: isolate"/>
          </g>
          <g id="Group_2415" data-name="Group 2415" transform="translate(22.776 29.2)">
            <path id="Path_4785" data-name="Path 4785" d="M1453.584,514.338c-.98,1.636-.464,5.18-.782,6.865a27.493,27.493,0,0,1-1.5,4.924c-.207.434-6.708,6.209-7.084,5.919-.858-.661-1.415-5.221-.29-6.547a9.276,9.276,0,0,0,2.266-3.706c.195-1.106.13-4.692.6-5.247,1.066-1.261,2.181-1.66,2.658-3.233Z" transform="translate(-1443.298 -456.773)" fill="url(#linear-gradient-14)"/>
            <path id="Path_4786" data-name="Path 4786" d="M1466.7,487.524a9.929,9.929,0,0,0,.245-1.143c1.693-7,3.412-18.983,3.192-25.923-.168-5.3-2.748-9.787-8.967-8.061-1.911.53-4.123,1.984-4.406,4.5-.339,3.014.111,8.015.4,13.128.228,4.085.208,11.453.364,14.439-.027.091-.053.184-.077.279a161.625,161.625,0,0,0-7.6,21.106,8.118,8.118,0,0,0-.017,1.941,3.609,3.609,0,0,1-.5,1.56,9.43,9.43,0,0,0,4.263,2.2,11.471,11.471,0,0,1,.872-1.536c.269-.411,1.514-.8,2-1.382,2.577-3.088,9.377-17.2,10.208-20.956C1466.684,487.624,1466.693,487.574,1466.7,487.524Z" transform="translate(-1443.765 -452.021)" fill="url(#linear-gradient-15)"/>
          </g>
        </g>
      </g>
      <g id="Group_2433" data-name="Group 2433" transform="translate(182.082 52.008)">
        <g id="Group_2417" data-name="Group 2417" transform="translate(21.443 81.627)">
          <path id="Path_4787" data-name="Path 4787" d="M1398.078,570.024l-.011,4.077-7.708-4.79.012-4.077Z" transform="translate(-1390.359 -565.234)" fill="#abb5eb"/>
        </g>
        <g id="Group_2418" data-name="Group 2418" transform="translate(34.104 89.496)">
          <path id="Path_4788" data-name="Path 4788" d="M1414.8,580.418l-.012,4.078-10.7-6.654.011-4.078Z" transform="translate(-1404.084 -573.764)" fill="#fff"/>
        </g>
        <g id="Group_2419" data-name="Group 2419" transform="translate(0.067 59.405)">
          <path id="Path_4789" data-name="Path 4789" d="M1380.739,549.56l-.01,4.078-13.543-8.417.01-4.077Z" transform="translate(-1367.186 -541.144)" fill="#5bcacf"/>
        </g>
        <g id="Group_2420" data-name="Group 2420" transform="translate(12.763 48.539)">
          <path id="Path_4790" data-name="Path 4790" d="M1394.5,537.78l-.011,4.079-13.542-8.418.01-4.077Z" transform="translate(-1380.95 -529.364)" fill="#5bcacf"/>
        </g>
        <g id="Group_2421" data-name="Group 2421" transform="translate(0.215 6.66)">
          <path id="Path_4791" data-name="Path 4791" d="M1380.9,492.383l-.012,4.077-13.544-8.417.011-4.078Z" transform="translate(-1367.347 -483.966)" fill="#5bcacf"/>
        </g>
        <g id="Group_2422" data-name="Group 2422" transform="translate(32.023 42.692)">
          <path id="Path_4792" data-name="Path 4792" d="M1415.373,531.437l-.011,4.077-13.533-8.411.011-4.077Z" transform="translate(-1401.829 -523.026)" fill="#abb5eb"/>
        </g>
        <g id="Group_2423" data-name="Group 2423">
          <path id="Path_4793" data-name="Path 4793" d="M1394.21,493.58l-.011,4.066-27.085-16.834.012-4.066Z" transform="translate(-1367.114 -476.746)" fill="#ff4b71"/>
        </g>
        <g id="Group_2424" data-name="Group 2424" transform="translate(6.328 17.991)">
          <path id="Path_4794" data-name="Path 4794" d="M1387.529,504.667l-.013,4.077-13.542-8.417.012-4.077Z" transform="translate(-1373.974 -496.25)" fill="#5bcacf"/>
        </g>
        <g id="Group_2425" data-name="Group 2425" transform="translate(19.917 43.637)">
          <path id="Path_4795" data-name="Path 4795" d="M1438.093,554.74l-.013,4.077-49.375-30.689.01-4.077Z" transform="translate(-1388.705 -524.051)" fill="#ff4b71"/>
        </g>
        <g id="Group_2426" data-name="Group 2426" transform="translate(50.023 53.879)">
          <path id="Path_4796" data-name="Path 4796" d="M1440.206,546.872l-.012,4.077-18.853-11.718.011-4.077Z" transform="translate(-1421.341 -535.154)" fill="#fff"/>
        </g>
        <g id="Group_2427" data-name="Group 2427" transform="translate(19.285 61.527)">
          <path id="Path_4797" data-name="Path 4797" d="M1463.3,590.229l-.012,4.077-75.272-46.783.011-4.078Z" transform="translate(-1388.02 -543.445)" fill="#fff"/>
        </g>
        <g id="Group_2428" data-name="Group 2428" transform="translate(72.833 76.527)">
          <path id="Path_4798" data-name="Path 4798" d="M1458.827,567.627l-.012,4.077-12.746-7.922.011-4.078Z" transform="translate(-1446.068 -559.705)" fill="#ff4b71"/>
        </g>
        <g id="Group_2429" data-name="Group 2429" transform="translate(12.814 30.752)">
          <path id="Path_4799" data-name="Path 4799" d="M1394.557,518.5l-.01,4.078L1381,514.16l.012-4.078Z" transform="translate(-1381.005 -510.082)" fill="#5bcacf"/>
        </g>
        <g id="Group_2430" data-name="Group 2430" transform="translate(17.681 17.516)">
          <path id="Path_4800" data-name="Path 4800" d="M1386.282,499.813l26.991,16.774.012-4.076-26.991-16.777Z" transform="translate(-1386.282 -495.734)" fill="#fff"/>
        </g>
        <g id="Group_2431" data-name="Group 2431" transform="translate(6.841 72.55)">
          <path id="Path_4801" data-name="Path 4801" d="M1384.187,561.391l-9.646-6-.012,4.078,9.646,6Z" transform="translate(-1374.53 -555.394)" fill="#5bcacf"/>
        </g>
        <g id="Group_2432" data-name="Group 2432" transform="translate(73.119 68.234)">
          <path id="Path_4802" data-name="Path 4802" d="M1459.933,559.132l-.012,4.077-13.543-8.417.011-4.077Z" transform="translate(-1446.378 -550.715)" fill="#abb5eb"/>
        </g>
      </g>
      <g id="Group_1221" data-name="Group 1221" transform="translate(318.264 230.075)">
        <g id="Group_1200" data-name="Group 1200" transform="translate(0.092)">
          <path id="Path_810" data-name="Path 810" d="M1516.226,669.978a3.254,3.254,0,0,1,1.384,2.4h0c0,.922-.646,1.291-1.384.83a3.261,3.261,0,0,1-1.384-2.4h0C1514.842,669.886,1515.492,669.517,1516.226,669.978Z" transform="translate(-1514.842 -669.78)" fill="#fff"/>
        </g>
        <g id="Group_1201" data-name="Group 1201" transform="translate(0.092 13.745)">
          <path id="Path_811" data-name="Path 811" d="M1516.226,684.878a3.254,3.254,0,0,1,1.384,2.4h0c0,.922-.646,1.291-1.384.83a3.261,3.261,0,0,1-1.384-2.4h0C1514.842,684.786,1515.4,684.417,1516.226,684.878Z" transform="translate(-1514.842 -684.68)" fill="#fff"/>
        </g>
        <g id="Group_1202" data-name="Group 1202" transform="translate(0 27.49)">
          <path id="Path_812" data-name="Path 812" d="M1516.126,699.778a3.254,3.254,0,0,1,1.384,2.4h0c0,.922-.646,1.291-1.384.83a3.261,3.261,0,0,1-1.384-2.4h0C1514.742,699.686,1515.388,699.317,1516.126,699.778Z" transform="translate(-1514.742 -699.58)" fill="#fff"/>
        </g>
        <g id="Group_1203" data-name="Group 1203" transform="translate(11.896 6.736)">
          <path id="Path_813" data-name="Path 813" d="M1528.938,677.278a5.9,5.9,0,0,1,.83.738,3.408,3.408,0,0,1,.646,1.753c0,.922-.646,1.291-1.384.83h0a3.261,3.261,0,0,1-1.384-2.4h0C1527.554,677.186,1528.195,676.817,1528.938,677.278Z" transform="translate(-1527.637 -677.082)" fill="#fff"/>
        </g>
        <g id="Group_1204" data-name="Group 1204" transform="translate(11.896 20.521)">
          <path id="Path_814" data-name="Path 814" d="M1528.938,692.182a5.9,5.9,0,0,1,.83.738,3.407,3.407,0,0,1,.646,1.753c0,.922-.646,1.291-1.384.83h0a3.261,3.261,0,0,1-1.384-2.4h0C1527.554,692.09,1528.195,691.813,1528.938,692.182Z" transform="translate(-1527.637 -692.026)" fill="#fff"/>
        </g>
        <g id="Group_1205" data-name="Group 1205" transform="translate(11.871 34.318)">
          <path id="Path_815" data-name="Path 815" d="M1528.936,707.178a5.9,5.9,0,0,1,.83.738,3.136,3.136,0,0,1,.646,1.753c0,.922-.646,1.291-1.384.83h0a3.261,3.261,0,0,1-1.384-2.4h0C1527.455,707.086,1528.105,706.717,1528.936,707.178Z" transform="translate(-1527.611 -706.982)" fill="#fff"/>
        </g>
        <g id="Group_1206" data-name="Group 1206" transform="translate(23.699 13.563)">
          <path id="Path_816" data-name="Path 816" d="M1541.733,684.678a5.951,5.951,0,0,1,.83.738,3.409,3.409,0,0,1,.646,1.753c0,.922-.646,1.291-1.384.83h0a3.26,3.26,0,0,1-1.384-2.4h0C1540.349,684.586,1541,684.217,1541.733,684.678Z" transform="translate(-1540.432 -684.482)" fill="#fff"/>
        </g>
        <g id="Group_1207" data-name="Group 1207" transform="translate(23.676 27.307)">
          <path id="Path_817" data-name="Path 817" d="M1541.731,699.578a5.951,5.951,0,0,1,.83.738,3.408,3.408,0,0,1,.646,1.753c0,.922-.646,1.291-1.384.83h0a3.26,3.26,0,0,1-1.384-2.4h0C1540.255,699.486,1540.9,699.117,1541.731,699.578Z" transform="translate(-1540.408 -699.382)" fill="#fff"/>
        </g>
        <g id="Group_1208" data-name="Group 1208" transform="translate(23.607 41.092)">
          <path id="Path_818" data-name="Path 818" d="M1541.633,714.482a5.886,5.886,0,0,1,.83.738,3.137,3.137,0,0,1,.646,1.753c0,.922-.646,1.291-1.384.83h0a3.26,3.26,0,0,1-1.384-2.4h0C1540.249,714.39,1540.895,714.113,1541.633,714.482Z" transform="translate(-1540.333 -714.326)" fill="#fff"/>
        </g>
        <g id="Group_1209" data-name="Group 1209" transform="translate(35.506 6.583)">
          <path id="Path_819" data-name="Path 819" d="M1554.625,677.173a3.254,3.254,0,0,1,1.384,2.4c0,.922-.646,1.291-1.384.83h0a3.261,3.261,0,0,1-1.384-2.4C1553.149,676.989,1553.795,676.62,1554.625,677.173Z" transform="translate(-1553.232 -676.916)" fill="#fff"/>
        </g>
        <g id="Group_1210" data-name="Group 1210" transform="translate(47.23 13.376)">
          <path id="Path_820" data-name="Path 820" d="M1567.326,684.478a3.254,3.254,0,0,1,1.384,2.4c0,.922-.646,1.291-1.384.83a3.26,3.26,0,0,1-1.384-2.4C1565.942,684.386,1566.592,684.017,1567.326,684.478Z" transform="translate(-1565.942 -684.28)" fill="#e75979"/>
        </g>
        <g id="Group_1211" data-name="Group 1211" transform="translate(35.427 20.387)">
          <path id="Path_821" data-name="Path 821" d="M1554.531,692.078a3.254,3.254,0,0,1,1.384,2.4h0c0,.922-.646,1.291-1.384.83h0a3.261,3.261,0,0,1-1.384-2.4h0C1553.147,691.986,1553.7,691.617,1554.531,692.078Z" transform="translate(-1553.147 -691.88)" fill="#fff"/>
        </g>
        <g id="Group_1212" data-name="Group 1212" transform="translate(35.419 34.131)">
          <path id="Path_822" data-name="Path 822" d="M1554.53,706.978a3.254,3.254,0,0,1,1.384,2.4h0c0,.922-.646,1.291-1.384.83h0a3.261,3.261,0,0,1-1.384-2.4h0C1553.054,706.886,1553.7,706.517,1554.53,706.978Z" transform="translate(-1553.137 -706.78)" fill="#fff"/>
        </g>
        <g id="Group_1213" data-name="Group 1213" transform="translate(35.335 47.876)">
          <path id="Path_823" data-name="Path 823" d="M1554.431,721.878a3.254,3.254,0,0,1,1.384,2.4h0c0,.922-.646,1.292-1.384.83h0a3.263,3.263,0,0,1-1.384-2.4h0C1553.047,721.786,1553.693,721.417,1554.431,721.878Z" transform="translate(-1553.047 -721.68)" fill="#fff"/>
        </g>
        <g id="Group_1214" data-name="Group 1214" transform="translate(47.291 27.123)">
          <path id="Path_824" data-name="Path 824" d="M1567.331,699.379a5.956,5.956,0,0,1,.83.738,3.408,3.408,0,0,1,.646,1.753c0,.922-.646,1.291-1.384.83h0a3.258,3.258,0,0,1-1.384-2.4h0C1565.855,699.286,1566.505,698.917,1567.331,699.379Z" transform="translate(-1566.008 -699.182)" fill="#e75979"/>
        </g>
        <g id="Group_1215" data-name="Group 1215" transform="translate(47.222 40.96)">
          <path id="Path_825" data-name="Path 825" d="M1567.233,714.379a5.947,5.947,0,0,1,.83.738,3.408,3.408,0,0,1,.646,1.753c0,.922-.646,1.292-1.384.83h0a3.26,3.26,0,0,1-1.384-2.4h0C1565.849,714.286,1566.5,713.917,1567.233,714.379Z" transform="translate(-1565.932 -714.182)" fill="#e75979"/>
        </g>
        <g id="Group_1216" data-name="Group 1216" transform="translate(47.199 54.705)">
          <path id="Path_826" data-name="Path 826" d="M1567.231,729.279a5.955,5.955,0,0,1,.83.738,3.136,3.136,0,0,1,.646,1.753c0,.922-.646,1.292-1.384.83h0a3.26,3.26,0,0,1-1.384-2.4h0C1565.755,729.186,1566.4,728.817,1567.231,729.279Z" transform="translate(-1565.908 -729.082)" fill="#e75979"/>
        </g>
        <g id="Group_1217" data-name="Group 1217" transform="translate(59.03 20.202)">
          <path id="Path_827" data-name="Path 827" d="M1580.125,691.878a3.253,3.253,0,0,1,1.384,2.4c0,.922-.646,1.291-1.384.83a3.261,3.261,0,0,1-1.384-2.4C1578.654,691.786,1579.295,691.417,1580.125,691.878Z" transform="translate(-1578.733 -691.68)" fill="#e75979"/>
        </g>
        <g id="Group_1218" data-name="Group 1218" transform="translate(59.034 33.949)">
          <path id="Path_828" data-name="Path 828" d="M1580.038,706.779a5.907,5.907,0,0,1,.83.738,3.409,3.409,0,0,1,.646,1.753c0,.922-.646,1.291-1.384.83h0a3.261,3.261,0,0,1-1.384-2.4h0C1578.654,706.686,1579.3,706.317,1580.038,706.779Z" transform="translate(-1578.737 -706.582)" fill="#e75979"/>
        </g>
        <g id="Group_1219" data-name="Group 1219" transform="translate(59.033 47.694)">
          <path id="Path_829" data-name="Path 829" d="M1580.038,721.679a5.9,5.9,0,0,1,.83.738,3.409,3.409,0,0,1,.646,1.753c0,.922-.646,1.291-1.384.83h0a3.261,3.261,0,0,1-1.384-2.4h0C1578.654,721.586,1579.2,721.217,1580.038,721.679Z" transform="translate(-1578.736 -721.482)" fill="#e75979"/>
        </g>
        <g id="Group_1220" data-name="Group 1220" transform="translate(58.942 61.531)">
          <path id="Path_830" data-name="Path 830" d="M1579.938,736.679a5.9,5.9,0,0,1,.83.738,3.136,3.136,0,0,1,.646,1.753c0,.922-.646,1.291-1.384.83h0a3.26,3.26,0,0,1-1.384-2.4h0C1578.554,736.586,1579.2,736.217,1579.938,736.679Z" transform="translate(-1578.637 -736.482)" fill="#e75979"/>
        </g>
      </g>
      <g id="Group_1232" data-name="Group 1232" transform="translate(265.868 200.832)">
        <path id="Path_839" data-name="Path 839" d="M1472.056,640.031c-7.749-4.52-14.021-.922-14.114,8.026l4.428,2.491c0-6.088,4.336-8.579,9.686-5.535.092.092.185.092.277.185l.184-4.981C1472.337,640.308,1472.148,640.123,1472.056,640.031Z" transform="translate(-1457.942 -638.079)" fill="#fff"/>
        <g id="Group_1231" data-name="Group 1231" transform="translate(0 2.321)">
          <path id="Path_840" data-name="Path 840" d="M1462.37,650.834l-4.428-2.491c0,8.856,6.273,19.741,14.021,24.261,7.657,4.428,14.022.83,14.114-8.026a10,10,0,0,0-.092-1.66c-.554-6.642-4.243-14.022-9.317-19l-.184-.185c-.277-.277-.646-.553-1.015-.922l-.369-.369c-.277-.184-.553-.461-.83-.646-.184-.185-.369-.277-.553-.461-.277-.185-.461-.277-.738-.461-.184-.092-.277-.185-.461-.277l-.184,4.981c5.166,3.136,9.317,10.424,9.317,16.42,0,6.088-4.336,8.579-9.686,5.535C1466.613,664.395,1462.37,656.923,1462.37,650.834Z" transform="translate(-1457.942 -640.595)" fill="#e75979"/>
        </g>
      </g>
      <g id="Group_1234" data-name="Group 1234" transform="translate(224.91 175.095)">
        <path id="Path_841" data-name="Path 841" d="M1427.656,612.131c-7.749-4.52-14.022-.922-14.114,8.025l4.428,2.491c0-6.088,4.336-8.579,9.686-5.535.092.092.184.092.277.185l.185-4.981C1427.937,612.315,1427.845,612.223,1427.656,612.131Z" transform="translate(-1413.542 -610.179)" fill="#fff"/>
        <g id="Group_1233" data-name="Group 1233" transform="translate(0 2.229)">
          <path id="Path_842" data-name="Path 842" d="M1417.97,622.834l-4.428-2.491c0,8.856,6.273,19.741,14.021,24.261,7.656,4.428,14.022.83,14.114-8.025a10,10,0,0,0-.092-1.66c-.553-6.642-4.243-14.022-9.317-19l-.185-.185c-.277-.277-.646-.553-1.015-.922l-.369-.369c-.277-.184-.553-.461-.83-.646-.184-.185-.369-.277-.553-.461-.277-.185-.461-.277-.738-.461-.185-.092-.277-.185-.461-.277l-.185,4.981c5.166,3.136,9.317,10.424,9.317,16.42,0,6.088-4.336,8.579-9.686,5.535C1422.31,636.487,1417.97,629.015,1417.97,622.834Z" transform="translate(-1413.542 -612.595)" fill="#e75979"/>
        </g>
      </g>
      <g id="Group_1236" data-name="Group 1236" transform="translate(184.414 148.528)">
        <path id="Path_843" data-name="Path 843" d="M1383.756,583.331c-7.749-4.52-14.022-.922-14.114,8.026l4.428,2.491c0-6.088,4.336-8.579,9.686-5.535.092.092.184.092.277.184l.185-4.981A.707.707,0,0,1,1383.756,583.331Z" transform="translate(-1369.642 -581.379)" fill="#fff"/>
        <g id="Group_1235" data-name="Group 1235" transform="translate(0 2.229)">
          <path id="Path_844" data-name="Path 844" d="M1374.07,594.034l-4.428-2.491c0,8.856,6.273,19.741,14.022,24.261,7.656,4.428,14.021.83,14.114-8.026a9.975,9.975,0,0,0-.092-1.66c-.553-6.642-4.243-14.022-9.317-19l-.185-.185c-.277-.277-.646-.553-1.015-.922l-.369-.369c-.277-.185-.553-.461-.83-.646-.185-.184-.369-.277-.554-.461-.277-.184-.461-.277-.738-.461-.185-.092-.277-.184-.461-.277l-.185,4.981c5.166,3.136,9.317,10.424,9.317,16.42,0,6.088-4.336,8.579-9.686,5.535S1373.978,600.215,1374.07,594.034Z" transform="translate(-1369.642 -583.795)" fill="#e75979"/>
        </g>
      </g>
    </g>
    <g id="Group_2460" data-name="Group 2460" transform="translate(1472.947 480.131)">
      <g id="Group_2436" data-name="Group 2436" transform="translate(62.09 91.064)">
        <g id="Group_2435" data-name="Group 2435">
          <path id="Path_4803" data-name="Path 4803" d="M1664.192,761.614l-98.451-60.334,6.251-114.537V586.7l0-.019v-.033l0-.035V586.6l0-.027,0-.025v-.012l0-.037v0l0-.035v-.02l0-.019,0-.037,0,0,0-.042v-.013l0-.029,0-.031v-.01l.006-.044v-.006l.005-.037,0-.026,0-.019.006-.045h0l.008-.046,0-.019.006-.027.006-.039,0-.007.009-.047,0-.012.007-.036.006-.03,0-.018.01-.047v0l.011-.044.005-.024.006-.024.011-.045v0l.013-.049,0-.016.009-.033.01-.037,0-.012.015-.049,0-.008.013-.04.008-.029.007-.02.016-.049h0l.016-.049.007-.02.01-.028.015-.04,0-.008.018-.047,0-.012.014-.036.013-.031.007-.015.02-.048,0,0,.019-.042.01-.022.012-.023.02-.042v0l.023-.045.007-.015.017-.029.024-.043.025-.043,0-.007.021-.035.015-.025.012-.016.027-.041.028-.04.012-.016.017-.022.024-.031.006-.006.029-.036.007-.01.023-.026.021-.023.01-.011.032-.033,0,0,.031-.029.017-.017.017-.015.031-.029,0,0,.035-.028.012-.01.024-.017a1.293,1.293,0,0,1,1.343-.074l98.443,60.334C1669.58,642.489,1668.546,727.839,1664.192,761.614Z" transform="translate(-1565.74 -583.871)" fill="url(#linear-gradient-16)"/>
          <path id="Path_4804" data-name="Path 4804" d="M1571.992,586.984l75.229,47.388,18.472,103.361c.344,8.983-.9,17.658-.733,26.573l-99.221-62.784Z" transform="translate(-1565.74 -584.113)" fill="#d37d3f"/>
        </g>
        <path id="Path_4805" data-name="Path 4805" d="M1634.9,680.116a2.246,2.246,0,0,1,.394-.375.992.992,0,0,1,1.626.536l32.572,86.41,6.248-114.537a3.546,3.546,0,0,1,1.2-2.583,1.564,1.564,0,0,1,.411-.213c.833-.266,1.451.582,1.373,1.864l-6.271,115.3a17.573,17.573,0,0,1-.7,4.513,4.209,4.209,0,0,1-1.421,2.206,1.316,1.316,0,0,1-1.673.046,6.369,6.369,0,0,1-1.575-2.69l-32.87-87.125A3.781,3.781,0,0,1,1634.9,680.116Z" transform="translate(-1571.037 -588.945)" fill="#e28b4d"/>
      </g>
      <path id="Path_4806" data-name="Path 4806" d="M1625.979,554.862l-111.1-68.542a7.691,7.691,0,0,0-7.627-.3l-5.027,2.919.96,2.37a7.884,7.884,0,0,0-.186,1.638v111.5a33.59,33.59,0,0,0,15.952,28.586l111.1,68.542a7.9,7.9,0,0,0,1.684.77l2.188,1.747,3.552-2.124a7.713,7.713,0,0,0,4.457-7.025v-111.5A33.589,33.589,0,0,0,1625.979,554.862Z" transform="translate(-1498.725 -485.154)" fill="#a3a9de"/>
      <path id="Path_4807" data-name="Path 4807" d="M1625.481,704.284l-111.1-68.541a33.59,33.59,0,0,1-15.952-28.586v-111.5a7.79,7.79,0,0,1,11.881-6.63l111.1,68.542a33.587,33.587,0,0,1,15.952,28.586v111.5A7.79,7.79,0,0,1,1625.481,704.284Z" transform="translate(-1498.431 -485.363)" fill="#f8f9fe"/>
      <path id="Path_4808" data-name="Path 4808" d="M1624.6,698.126,1519.8,633.474a30.364,30.364,0,0,1-14.42-25.84V520.652a3.647,3.647,0,0,1,5.562-3.1l105.6,65.151a30.361,30.361,0,0,1,14.42,25.839v86.033A4.175,4.175,0,0,1,1624.6,698.126Z" transform="translate(-1498.97 -487.623)" fill="#eaedfc"/>
      <g id="Group_2453" data-name="Group 2453" transform="translate(13.527 41.873)">
        <g id="Group_2437" data-name="Group 2437" transform="translate(25.448 96.874)">
          <path id="Path_4809" data-name="Path 4809" d="M1549.842,641.247l-.013,4.839-9.148-5.685.014-4.839Z" transform="translate(-1540.681 -635.561)" fill="#abb5eb"/>
        </g>
        <g id="Group_2438" data-name="Group 2438" transform="translate(40.474 106.213)">
          <path id="Path_4810" data-name="Path 4810" d="M1569.689,653.581l-.014,4.84-12.7-7.9.013-4.839Z" transform="translate(-1556.97 -645.686)" fill="#ffcd2b"/>
        </g>
        <g id="Group_2439" data-name="Group 2439" transform="translate(0.079 70.501)">
          <path id="Path_4811" data-name="Path 4811" d="M1529.264,616.96l-.012,4.84-16.072-9.99.012-4.839Z" transform="translate(-1513.18 -606.972)" fill="#5bcacf"/>
        </g>
        <g id="Group_2440" data-name="Group 2440" transform="translate(15.147 57.605)">
          <path id="Path_4812" data-name="Path 4812" d="M1545.6,602.98l-.013,4.841-16.072-9.99.012-4.839Z" transform="translate(-1529.514 -592.992)" fill="#5bcacf"/>
        </g>
        <g id="Group_2441" data-name="Group 2441" transform="translate(0.255 7.904)">
          <path id="Path_4813" data-name="Path 4813" d="M1529.459,549.1l-.014,4.839-16.074-9.99.013-4.839Z" transform="translate(-1513.37 -539.113)" fill="#5bcacf"/>
        </g>
        <g id="Group_2442" data-name="Group 2442" transform="translate(38.005 50.666)">
          <path id="Path_4814" data-name="Path 4814" d="M1570.367,595.452l-.013,4.839-16.061-9.982.014-4.838Z" transform="translate(-1554.293 -585.47)" fill="#abb5eb"/>
        </g>
        <g id="Group_2443" data-name="Group 2443">
          <path id="Path_4815" data-name="Path 4815" d="M1545.251,550.524l-.013,4.826-32.144-19.978.014-4.826Z" transform="translate(-1513.094 -530.546)" fill="#ff4b71"/>
        </g>
        <g id="Group_2444" data-name="Group 2444" transform="translate(7.51 21.352)">
          <path id="Path_4816" data-name="Path 4816" d="M1537.322,563.681l-.015,4.838-16.072-9.989.014-4.839Z" transform="translate(-1521.235 -553.692)" fill="#5bcacf"/>
        </g>
        <g id="Group_2445" data-name="Group 2445" transform="translate(23.637 51.788)">
          <path id="Path_4817" data-name="Path 4817" d="M1597.331,623.108l-.015,4.839-58.6-36.421.012-4.839Z" transform="translate(-1538.718 -586.686)" fill="#ff4b71"/>
        </g>
        <g id="Group_2446" data-name="Group 2446" transform="translate(59.366 63.943)">
          <path id="Path_4818" data-name="Path 4818" d="M1599.839,613.77l-.014,4.838L1577.45,604.7l.014-4.838Z" transform="translate(-1577.45 -599.863)" fill="#ffcd2b"/>
        </g>
        <g id="Group_2447" data-name="Group 2447" transform="translate(22.887 73.02)">
          <path id="Path_4819" data-name="Path 4819" d="M1627.252,665.225l-.014,4.839-89.332-55.522.013-4.84Z" transform="translate(-1537.905 -609.703)" fill="#ffcd2b"/>
        </g>
        <g id="Group_2448" data-name="Group 2448" transform="translate(86.437 90.821)">
          <path id="Path_4820" data-name="Path 4820" d="M1621.938,638.4l-.014,4.839-15.127-9.4.013-4.839Z" transform="translate(-1606.796 -629)" fill="#ff4b71"/>
        </g>
        <g id="Group_2449" data-name="Group 2449" transform="translate(15.207 36.496)">
          <path id="Path_4821" data-name="Path 4821" d="M1545.664,580.1l-.012,4.839-16.072-9.99.014-4.839Z" transform="translate(-1529.58 -570.109)" fill="#5bcacf"/>
        </g>
        <g id="Group_2450" data-name="Group 2450" transform="translate(20.984 20.787)">
          <path id="Path_4822" data-name="Path 4822" d="M1535.842,557.921l32.033,19.908.014-4.838-32.033-19.91Z" transform="translate(-1535.842 -553.08)" fill="#ffcd2b"/>
        </g>
        <g id="Group_2451" data-name="Group 2451" transform="translate(8.119 86.102)">
          <path id="Path_4823" data-name="Path 4823" d="M1533.356,631l-11.448-7.117-.014,4.84,11.448,7.116Z" transform="translate(-1521.895 -623.884)" fill="#5bcacf"/>
        </g>
        <g id="Group_2452" data-name="Group 2452" transform="translate(86.776 80.979)">
          <path id="Path_4824" data-name="Path 4824" d="M1623.251,628.32l-.015,4.838-16.072-9.989.014-4.838Z" transform="translate(-1607.164 -618.331)" fill="#abb5eb"/>
        </g>
      </g>
      <g id="Group_2457" data-name="Group 2457" transform="translate(6.388 10.937)">
        <g id="Group_2454" data-name="Group 2454">
          <path id="Path_4825" data-name="Path 4825" d="M1509.758,497.612a9.647,9.647,0,0,1,4.373,7.575c-.008,2.779-1.983,3.9-4.4,2.508a9.644,9.644,0,0,1-4.374-7.575C1505.363,497.336,1507.334,496.213,1509.758,497.612Z" transform="translate(-1505.356 -497.01)" fill="#5bcacf"/>
        </g>
        <g id="Group_2455" data-name="Group 2455" transform="translate(12.005 6.931)">
          <path id="Path_4826" data-name="Path 4826" d="M1522.772,505.126a9.634,9.634,0,0,1,4.373,7.575c-.007,2.779-1.978,3.908-4.4,2.508a9.649,9.649,0,0,1-4.373-7.574C1518.378,504.85,1520.349,503.727,1522.772,505.126Z" transform="translate(-1518.37 -504.524)" fill="#ff4b71"/>
        </g>
        <g id="Group_2456" data-name="Group 2456" transform="translate(24.017 13.866)">
          <path id="Path_4827" data-name="Path 4827" d="M1535.793,512.644a9.643,9.643,0,0,1,4.374,7.574c-.008,2.779-1.983,3.9-4.4,2.509a9.648,9.648,0,0,1-4.374-7.575C1531.4,512.367,1533.369,511.244,1535.793,512.644Z" transform="translate(-1531.391 -512.042)" fill="#ffcd2b"/>
        </g>
      </g>
      <g id="Group_2459" data-name="Group 2459" transform="translate(20.56 104.967)">
        <g id="Group_2458" data-name="Group 2458">
          <path id="Path_4828" data-name="Path 4828" d="M1625.794,678.382l32.71,83.67,0,0c.406.9.977,6.957,1.476,7.486l-98.445-60.327a5.046,5.046,0,0,1-1.692-2.769l-32.867-87.118.02.012-6.161-16.331a4.3,4.3,0,0,1,.4-2.956c4.272,3.93,26.193,18.018,30.222,20.517,6.929,5.572,7.884,11.327,18.763,22.754a20.441,20.441,0,0,0,5.2,4.267Z" transform="translate(-1520.719 -599.029)" fill="url(#linear-gradient-17)"/>
          <path id="Path_4829" data-name="Path 4829" d="M1634.9,682.654a2.246,2.246,0,0,1,.394-.375.992.992,0,0,1,1.626.536l32.572,86.41,2.261,4.349a4.209,4.209,0,0,1-1.421,2.206,1.316,1.316,0,0,1-1.673.046,6.369,6.369,0,0,1-1.575-2.69l-32.87-87.125A3.781,3.781,0,0,1,1634.9,682.654Z" transform="translate(-1529.506 -605.385)" fill="#e28b4d"/>
          <path id="Path_4830" data-name="Path 4830" d="M1577.969,645.279l49.657,30.431c-1.276-.667-2.7,2.4-2.2,3.858l-50.154-30.733a33.774,33.774,0,0,1-4.219-2.851c-7.332-5.939-11.481-14.081-16.621-20.666a24.238,24.238,0,0,0-4.228-4.266c-1.231-.71-1.884-1.089-1.668-.976l-27.705-17.18a4.3,4.3,0,0,1,.408-2.931c.406-.588,1.066-1.314,1.805-.9l27.754,17.21c-.216-.113.435.266,1.668.976a24.174,24.174,0,0,1,4.227,4.266c5.439,6.966,9.7,14.8,17.918,21.445A28.8,28.8,0,0,0,1577.969,645.279Z" transform="translate(-1520.719 -598.943)" fill="#e4bd77"/>
        </g>
      </g>
    </g>
    <g id="Group_2467" data-name="Group 2467" transform="translate(1201.243 458.028)">
      <g id="Group_2463" data-name="Group 2463" transform="translate(0 72.655)">
        <g id="Group_2462" data-name="Group 2462">
          <path id="Path_4831" data-name="Path 4831" d="M1252,620.784c-12.5-7.217-22.634-24.695-22.634-39.039,0-5.32,1.41-9.437,3.805-12.166-6.859.5-11.5,6.24-11.5,15.932,0,14.344,10.133,31.821,22.633,39.038,7.853,4.534,14.748,3.911,18.8-.721C1259.822,624.068,1256.039,623.118,1252,620.784Z" transform="translate(-1205.27 -542.251)" fill="#34c7c7"/>
          <path id="Path_4832" data-name="Path 4832" d="M1272.616,614.177a44.675,44.675,0,0,0-.386-5.487l9.148-1.158a82.81,82.81,0,0,0-4.146-13.85l-10.425-3.152a73.253,73.253,0,0,0-6.489-11.191l2.5-10.52a83.591,83.591,0,0,0-9.984-10.522l-5.611,7.258a45.507,45.507,0,0,0-4.587-3.092,35.292,35.292,0,0,0-4.587-2.2l-5.611-13.737a27.792,27.792,0,0,0-9.984-1.007l2.5,13.4a14.314,14.314,0,0,0-6.489,3.7l-10.424-8.885a27.182,27.182,0,0,0-4.146,9.062l9.148,11.721a34.674,34.674,0,0,0-.387,5.04,44.687,44.687,0,0,0,.387,5.486l-9.148,1.157a82.561,82.561,0,0,0,4.146,13.851l10.424,3.153a73.243,73.243,0,0,0,6.489,11.19l-2.5,10.52a83.467,83.467,0,0,0,9.984,10.522l5.611-7.258a45.364,45.364,0,0,0,4.587,3.092,35.284,35.284,0,0,0,4.587,2.2l5.611,13.737a27.773,27.773,0,0,0,9.984,1.007l-2.5-13.4a14.312,14.312,0,0,0,6.489-3.7L1277.232,640a27.246,27.246,0,0,0,4.146-9.062l-9.148-11.721A34.655,34.655,0,0,0,1272.616,614.177Zm-29.693,8.5c-12.5-7.216-22.633-24.694-22.633-39.038s10.133-20.121,22.633-12.9,22.634,24.695,22.634,39.038S1255.423,629.894,1242.923,622.676Z" transform="translate(-1203.892 -540.377)" fill="#5bcacf"/>
          <path id="Path_4833" data-name="Path 4833" d="M1249.215,554.894l-5.611-13.738-8.767,5.036,5.611,13.738Z" transform="translate(-1206.291 -540.047)" fill="#34c7c7"/>
          <path id="Path_4834" data-name="Path 4834" d="M1240.919,561.085a35.292,35.292,0,0,1,4.587,2.2,45.6,45.6,0,0,1,4.587,3.092l5.61-7.257h0s-.948-.6-1.428-.872a35.284,35.284,0,0,0-4.587-2.2Z" transform="translate(-1206.763 -541.202)" fill="#78dede"/>
          <path id="Path_4835" data-name="Path 4835" d="M1242.765,541.063a27.818,27.818,0,0,0-9.985-1.006l-8.767,5.036A27.8,27.8,0,0,1,1234,546.1Z" transform="translate(-1205.452 -539.954)" fill="#78dede"/>
          <path id="Path_4836" data-name="Path 4836" d="M1275.7,564.444a83.524,83.524,0,0,0-9.984-10.522l-8.766,5.036a83.654,83.654,0,0,1,9.983,10.522Z" transform="translate(-1208.005 -541.037)" fill="#78dede"/>
          <path id="Path_4837" data-name="Path 4837" d="M1267.559,570.364l-2.5,10.52,8.768-5.036,2.5-10.52Z" transform="translate(-1208.635 -541.921)" fill="#34c7c7"/>
          <path id="Path_4838" data-name="Path 4838" d="M1265.061,581.768a73.253,73.253,0,0,1,6.489,11.191l8.767-5.036a73.28,73.28,0,0,0-6.488-11.191Z" transform="translate(-1208.634 -542.805)" fill="#34c7c7"/>
          <path id="Path_4839" data-name="Path 4839" d="M1272.095,593.9l10.424,3.152,8.768-5.036-10.425-3.152Z" transform="translate(-1209.18 -543.746)" fill="#78dede"/>
          <path id="Path_4840" data-name="Path 4840" d="M1283.4,597.317a82.81,82.81,0,0,1,4.146,13.85l8.767-5.036a82.637,82.637,0,0,0-4.146-13.85Z" transform="translate(-1210.056 -544.011)" fill="#34c7c7"/>
          <path id="Path_4841" data-name="Path 4841" d="M1225.3,559.2l-.727-3.9-7.419-6.323-8.767,5.036,10.424,8.884A14.316,14.316,0,0,1,1225.3,559.2Z" transform="translate(-1204.24 -540.653)" fill="#34c7c7"/>
          <path id="Path_4842" data-name="Path 4842" d="M1287.542,637.7a27.246,27.246,0,0,1-4.146,9.062l8.767-5.036a27.209,27.209,0,0,0,4.146-9.062Z" transform="translate(-1210.056 -547.142)" fill="#34c7c7"/>
          <path id="Path_4843" data-name="Path 4843" d="M1286.74,619.4a34.65,34.65,0,0,0,.386-5.039c0-.529-.034-1.065-.063-1.6l-9.091,1.15a44.675,44.675,0,0,1,.386,5.487,34.655,34.655,0,0,1-.386,5.039Z" transform="translate(-1209.635 -545.599)" fill="#34c7c7"/>
          <path id="Path_4844" data-name="Path 4844" d="M1277.973,625l9.148,11.721,8.767-5.036-9.148-11.721Z" transform="translate(-1209.635 -546.157)" fill="#78dede"/>
          <path id="Path_4845" data-name="Path 4845" d="M1271.55,638.319a14.311,14.311,0,0,1-6.489,3.7l2.5,13.4,8.767-5.036-1.771-9.506Z" transform="translate(-1208.634 -547.58)" fill="#34c7c7"/>
          <path id="Path_4846" data-name="Path 4846" d="M1212.711,584.018l-8.819,5.176,9.148-1.157C1212.871,586.684,1212.768,585.344,1212.711,584.018Z" transform="translate(-1203.892 -543.37)" fill="#78dede"/>
          <path id="Path_4847" data-name="Path 4847" d="M1240.447,635.135l-5.611,7.258,8.833-5.026C1242.581,636.67,1241.5,635.933,1240.447,635.135Z" transform="translate(-1206.291 -547.333)" fill="#34c7c7"/>
          <g id="Group_2461" data-name="Group 2461" transform="translate(0.441 4.995)">
            <path id="Path_4848" data-name="Path 4848" d="M1213.207,588.246l-8.837,1.235c.03.148.07.3.1.443l7.54-.955C1211.991,588.819,1213.225,588.4,1213.207,588.246Z" transform="translate(-1204.37 -548.693)" fill="#78dede"/>
            <path id="Path_4849" data-name="Path 4849" d="M1266.442,570.475l-2.5,10.52a73.269,73.269,0,0,1,6.489,11.191l10.425,3.152c1.747,4.442,4.526,13.369,4.526,13.369a81.744,81.744,0,0,0-3.595-13.982l-10.425-3.153a73.287,73.287,0,0,0-6.489-11.191l2.5-10.52a85.99,85.99,0,0,0-10.387-10.476S1263.526,566.836,1266.442,570.475Z" transform="translate(-1208.449 -546.455)" fill="#78dede"/>
            <path id="Path_4850" data-name="Path 4850" d="M1244.312,624.56c-12.5-7.217-22.634-24.7-22.634-39.039,0-6.336,1.988-10.979,5.276-13.582-3.8,2.446-6.136,7.327-6.136,14.2,0,14.344,10.133,31.822,22.634,39.038,6.311,3.644,12.012,3.966,16.117,1.554-.3.093-.622.154-.936.223C1254.733,628.367,1249.75,627.7,1244.312,624.56Z" transform="translate(-1205.645 -547.428)" fill="#78dede"/>
            <path id="Path_4851" data-name="Path 4851" d="M1266.886,641.614a14.225,14.225,0,0,0,4.124-2.31l-.386-.329A14.279,14.279,0,0,1,1266.886,641.614Z" transform="translate(-1209.217 -552.626)" fill="#78dede"/>
            <path id="Path_4852" data-name="Path 4852" d="M1218.491,563.552c-.381.017,0-.3.385-.606l-10.038-8.557c-.285.395-.542.825-.069.876Z" transform="translate(-1204.691 -546.068)" fill="#78dede"/>
            <path id="Path_4853" data-name="Path 4853" d="M1264.785,642.942l2.391,12.828c-.277-.014.268-.02.8-.07l-2.472-13.269C1265,642.623,1264.493,642.8,1264.785,642.942Z" transform="translate(-1209.047 -552.894)" fill="#78dede"/>
            <path id="Path_4854" data-name="Path 4854" d="M1278.765,619.49a43.134,43.134,0,0,0-.341-5.038l-.911.068a44.7,44.7,0,0,1,.387,5.487,34.659,34.659,0,0,1-.387,5.039l9.149,11.721a27.966,27.966,0,0,1-3.34,7.818l.059.727a27.251,27.251,0,0,0,4.146-9.062l-9.148-11.722A34.661,34.661,0,0,0,1278.765,619.49Z" transform="translate(-1210.041 -550.724)" fill="#78dede"/>
            <path id="Path_4855" data-name="Path 4855" d="M1233.652,546.884l5.611,13.737a35.419,35.419,0,0,1,4.587,2.2,45.5,45.5,0,0,1,4.585,3.092l.176-.871a42.7,42.7,0,0,0-3.939-2.626,35.278,35.278,0,0,0-4.587-2.2l-5.611-13.738a27.815,27.815,0,0,0-9.984-1.007l.107.577A32.688,32.688,0,0,1,1233.652,546.884Z" transform="translate(-1205.93 -545.368)" fill="#78dede"/>
            <path id="Path_4856" data-name="Path 4856" d="M1239.369,635.791l-4.693,6.07c.2.177.39.367.589.542l4.752-6.146C1239.8,636.1,1239.583,635.952,1239.369,635.791Z" transform="translate(-1206.72 -552.379)" fill="#78dede"/>
          </g>
        </g>
      </g>
      <g id="Group_2466" data-name="Group 2466" transform="translate(38.946)">
        <g id="Group_2465" data-name="Group 2465">
          <path id="Path_4857" data-name="Path 4857" d="M1307.285,563.982c-15.9-9.178-28.782-31.4-28.782-49.644,0-6.766,1.793-12,4.838-15.471-8.723.631-14.624,7.934-14.624,20.259,0,18.24,12.886,40.467,28.781,49.644,9.987,5.765,18.756,4.973,23.91-.918C1317.236,568.158,1312.426,566.95,1307.285,563.982Z" transform="translate(-1247.864 -464.114)" fill="#4a64e8"/>
          <path id="Path_4858" data-name="Path 4858" d="M1333.506,555.58a56.816,56.816,0,0,0-.492-6.977l11.633-1.472a105.26,105.26,0,0,0-5.272-17.612l-13.257-4.009a93.184,93.184,0,0,0-8.252-14.232l3.177-13.378a106.329,106.329,0,0,0-12.7-13.38l-7.136,9.23a57.855,57.855,0,0,0-5.833-3.932,44.932,44.932,0,0,0-5.833-2.8l-7.135-17.471a35.355,35.355,0,0,0-12.7-1.28l3.177,17.046a18.2,18.2,0,0,0-8.25,4.7l-13.257-11.3a34.622,34.622,0,0,0-5.273,11.524l11.633,14.905a44.079,44.079,0,0,0-.492,6.409,56.8,56.8,0,0,0,.492,6.977L1246.111,520a105.2,105.2,0,0,0,5.273,17.614l13.256,4.009a93.209,93.209,0,0,0,8.251,14.231l-3.177,13.378a106.131,106.131,0,0,0,12.7,13.38l7.135-9.229a57.811,57.811,0,0,0,5.833,3.932,44.946,44.946,0,0,0,5.833,2.8l7.136,17.47a35.305,35.305,0,0,0,12.7,1.28l-3.177-17.045a18.209,18.209,0,0,0,8.252-4.7l13.257,11.3a34.637,34.637,0,0,0,5.272-11.524l-11.633-14.905A44.065,44.065,0,0,0,1333.506,555.58Zm-37.76,10.808c-15.9-9.177-28.781-31.4-28.781-49.644s12.886-25.587,28.781-16.409,28.782,31.4,28.782,49.643S1311.641,575.566,1295.745,566.388Z" transform="translate(-1246.111 -461.731)" fill="#7889f0"/>
          <path id="Path_4859" data-name="Path 4859" d="M1303.747,480.192l-7.135-17.47-11.149,6.4,7.136,17.47Z" transform="translate(-1249.162 -461.311)" fill="#4a64e8"/>
          <path id="Path_4860" data-name="Path 4860" d="M1293.2,488.065a44.983,44.983,0,0,1,5.832,2.8,57.855,57.855,0,0,1,5.833,3.932L1312,485.57h0s-1.206-.756-1.815-1.109a44.876,44.876,0,0,0-5.833-2.8Z" transform="translate(-1249.762 -462.78)" fill="#9af"/>
          <path id="Path_4861" data-name="Path 4861" d="M1295.545,462.6a35.356,35.356,0,0,0-12.7-1.28l-11.15,6.4a35.355,35.355,0,0,1,12.7,1.28Z" transform="translate(-1248.095 -461.193)" fill="#9af"/>
          <path id="Path_4862" data-name="Path 4862" d="M1337.424,492.335a106.267,106.267,0,0,0-12.7-13.38l-11.149,6.4a106.255,106.255,0,0,1,12.7,13.379Z" transform="translate(-1251.342 -462.57)" fill="#9af"/>
          <path id="Path_4863" data-name="Path 4863" d="M1327.075,499.864l-3.177,13.378,11.149-6.4,3.177-13.378Z" transform="translate(-1252.142 -463.694)" fill="#4a64e8"/>
          <path id="Path_4864" data-name="Path 4864" d="M1323.9,514.366a93.185,93.185,0,0,1,8.252,14.232l11.149-6.4a93.04,93.04,0,0,0-8.25-14.232Z" transform="translate(-1252.142 -464.819)" fill="#4a64e8"/>
          <path id="Path_4865" data-name="Path 4865" d="M1332.843,529.794,1346.1,533.8l11.149-6.4-13.257-4.009Z" transform="translate(-1252.835 -466.015)" fill="#9af"/>
          <path id="Path_4866" data-name="Path 4866" d="M1347.214,534.14a105.26,105.26,0,0,1,5.272,17.612l11.149-6.4a105.133,105.133,0,0,0-5.272-17.613Z" transform="translate(-1253.95 -466.352)" fill="#4a64e8"/>
          <path id="Path_4867" data-name="Path 4867" d="M1273.334,485.662l-.924-4.957-9.433-8.04-11.15,6.4,13.257,11.3A18.209,18.209,0,0,1,1273.334,485.662Z" transform="translate(-1246.554 -462.082)" fill="#4a64e8"/>
          <path id="Path_4868" data-name="Path 4868" d="M1352.486,585.5a34.637,34.637,0,0,1-5.272,11.524l11.149-6.4a34.612,34.612,0,0,0,5.272-11.524Z" transform="translate(-1253.95 -470.334)" fill="#4a64e8"/>
          <path id="Path_4869" data-name="Path 4869" d="M1351.467,562.224a44.053,44.053,0,0,0,.492-6.407c0-.672-.043-1.355-.079-2.037l-11.561,1.463a56.816,56.816,0,0,1,.492,6.977,44.065,44.065,0,0,1-.492,6.408Z" transform="translate(-1253.415 -468.371)" fill="#4a64e8"/>
          <path id="Path_4870" data-name="Path 4870" d="M1340.318,569.338l11.634,14.905,11.149-6.4-11.634-14.905Z" transform="translate(-1253.415 -469.081)" fill="#9af"/>
          <path id="Path_4871" data-name="Path 4871" d="M1332.15,586.281a18.209,18.209,0,0,1-8.252,4.7l3.177,17.045,11.149-6.4-2.253-12.088Z" transform="translate(-1252.142 -470.891)" fill="#4a64e8"/>
          <path id="Path_4872" data-name="Path 4872" d="M1257.325,517.228l-11.214,6.582,11.633-1.471C1257.53,520.617,1257.4,518.914,1257.325,517.228Z" transform="translate(-1246.111 -465.537)" fill="#9af"/>
          <path id="Path_4873" data-name="Path 4873" d="M1292.6,582.231l-7.136,9.23,11.232-6.392C1295.311,584.184,1293.942,583.246,1292.6,582.231Z" transform="translate(-1249.162 -470.577)" fill="#4a64e8"/>
          <g id="Group_2464" data-name="Group 2464" transform="translate(0.561 6.351)">
            <path id="Path_4874" data-name="Path 4874" d="M1257.957,522.6l-11.238,1.571c.038.187.089.375.128.563l9.588-1.213C1256.411,523.333,1257.98,522.795,1257.957,522.6Z" transform="translate(-1246.719 -472.305)" fill="#9af"/>
            <path id="Path_4875" data-name="Path 4875" d="M1325.655,500.006l-3.176,13.378a93.052,93.052,0,0,1,8.251,14.232l13.257,4.008c2.223,5.647,5.756,17,5.756,17-1.183-5.856-2.275-11.946-4.571-17.781l-13.257-4.009a93.249,93.249,0,0,0-8.251-14.231l3.176-13.379a109.362,109.362,0,0,0-13.209-13.321S1321.946,495.377,1325.655,500.006Z" transform="translate(-1251.907 -469.46)" fill="#9af"/>
            <path id="Path_4876" data-name="Path 4876" d="M1297.512,568.784c-15.9-9.178-28.782-31.4-28.782-49.644,0-8.058,2.528-13.963,6.71-17.272-4.831,3.111-7.8,9.316-7.8,18.053,0,18.24,12.886,40.466,28.782,49.644,8.026,4.633,15.277,5.043,20.5,1.977-.386.118-.791.2-1.191.283C1310.763,573.625,1304.427,572.775,1297.512,568.784Z" transform="translate(-1248.341 -470.698)" fill="#9af"/>
            <path id="Path_4877" data-name="Path 4877" d="M1326.219,590.471a18.062,18.062,0,0,0,5.244-2.938l-.491-.418A18.174,18.174,0,0,1,1326.219,590.471Z" transform="translate(-1252.883 -477.307)" fill="#9af"/>
            <path id="Path_4878" data-name="Path 4878" d="M1264.676,491.2c-.483.02,0-.378.49-.771L1252.4,479.55c-.362.5-.688,1.048-.088,1.113Z" transform="translate(-1247.127 -468.967)" fill="#9af"/>
            <path id="Path_4879" data-name="Path 4879" d="M1323.547,592.159l3.041,16.313c-.352-.018.341-.027,1.013-.089l-3.145-16.873C1323.82,591.754,1323.176,591.982,1323.547,592.159Z" transform="translate(-1252.667 -477.648)" fill="#9af"/>
            <path id="Path_4880" data-name="Path 4880" d="M1341.325,562.336a54.873,54.873,0,0,0-.434-6.406l-1.158.087a56.807,56.807,0,0,1,.492,6.978,44.071,44.071,0,0,1-.492,6.408l11.634,14.905a35.559,35.559,0,0,1-4.248,9.941l.076.924a34.643,34.643,0,0,0,5.272-11.525l-11.633-14.905A44.063,44.063,0,0,0,1341.325,562.336Z" transform="translate(-1253.93 -474.889)" fill="#9af"/>
            <path id="Path_4881" data-name="Path 4881" d="M1283.956,470.005l7.135,17.47a44.889,44.889,0,0,1,5.834,2.8,57.666,57.666,0,0,1,5.831,3.932l.224-1.108a54.26,54.26,0,0,0-5.009-3.34,44.827,44.827,0,0,0-5.833-2.8L1285,469.489a35.354,35.354,0,0,0-12.7-1.281l.137.733A41.552,41.552,0,0,1,1283.956,470.005Z" transform="translate(-1248.703 -468.078)" fill="#9af"/>
            <path id="Path_4882" data-name="Path 4882" d="M1291.226,583.066l-5.967,7.718c.251.226.5.468.748.69l6.042-7.816C1291.776,583.457,1291.5,583.272,1291.226,583.066Z" transform="translate(-1249.707 -476.993)" fill="#9af"/>
          </g>
        </g>
      </g>
    </g>
    <g id="Group_2468" data-name="Group 2468" transform="translate(1211.848 659.017)">
      <path id="Path_878" data-name="Path 878" d="M1246.092,752.135l127.462-17.283-71.489-55.777-60.491,18.068Z" transform="translate(-1217.418 -679.075)" opacity="0.15" fill="url(#linear-gradient-18)" style="mix-blend-mode: normal;isolation: isolate"/>
      <g id="Group_1263" data-name="Group 1263" transform="translate(0 5.695)">
        <path id="Path_879" data-name="Path 879" d="M1246.472,718.206v35.745l28.674-16.105V702.495Z" transform="translate(-1217.798 -686.586)" fill="#fdac74"/>
        <path id="Path_880" data-name="Path 880" d="M1244.062,718.206v35.745l-28.674-16.105V702.495Z" transform="translate(-1215.388 -686.586)" fill="url(#linear-gradient-19)"/>
        <path id="Path_881" data-name="Path 881" d="M1215.388,701.353l30.442-16.1,27.5,15.516-29.263,15.908Z" transform="translate(-1215.388 -685.249)" fill="url(#linear-gradient-20)"/>
      </g>
      <path id="Path_878-2" data-name="Path 878" d="M1284.288,754.436l59.868-8.118-33.578-26.2-28.412,8.487Z" transform="translate(-1220.565 -682.257)" opacity="0.15" fill="url(#linear-gradient-21)" style="mix-blend-mode: normal;isolation: isolate"/>
      <g id="Group_1263-2" data-name="Group 1263" transform="translate(50.254 40.538)">
        <path id="Path_879-2" data-name="Path 879" d="M1284.466,738.5v16.789l13.468-7.564v-16.6Z" transform="translate(-1270.998 -723.648)" fill="#fdac74"/>
        <path id="Path_880-2" data-name="Path 880" d="M1283.334,738.5v16.789l-13.468-7.564v-16.6Z" transform="translate(-1269.866 -723.648)" fill="url(#linear-gradient-22)"/>
        <path id="Path_881-2" data-name="Path 881" d="M1269.866,730.584l14.3-7.564,12.915,7.287-13.745,7.472Z" transform="translate(-1269.866 -723.02)" fill="url(#linear-gradient-23)"/>
      </g>
    </g>
    <g id="Group_2469" data-name="Group 2469" transform="translate(1435.835 720.713)">
      <path id="Path_878-3" data-name="Path 878" d="M1481.791,802.091l108.532-16.04-65.525-40.1-46.478,13.883Z" transform="translate(-1459.76 -745.956)" opacity="0.15" fill="url(#linear-gradient-24)" style="mix-blend-mode: normal;isolation: isolate"/>
      <g id="Group_1263-3" data-name="Group 1263" transform="translate(0 4.376)">
        <path id="Path_879-3" data-name="Path 879" d="M1482.083,776.022v27.464l22.031-12.374V763.95Z" transform="translate(-1460.052 -751.727)" fill="#fdac74"/>
        <path id="Path_880-3" data-name="Path 880" d="M1480.231,776.022v27.464L1458.2,791.112V763.95Z" transform="translate(-1458.2 -751.727)" fill="url(#linear-gradient-25)"/>
        <path id="Path_881-3" data-name="Path 881" d="M1458.2,763.074l23.389-12.374,21.126,11.921-22.484,12.223Z" transform="translate(-1458.2 -750.7)" fill="url(#linear-gradient-26)"/>
      </g>
    </g>
    <g id="Group_2485" data-name="Group 2485" transform="translate(1272.911 592.202)">
      <g id="Group_2471" data-name="Group 2471" transform="translate(0 237.677)">
        <g id="Group_2470" data-name="Group 2470">
          <path id="Path_4883" data-name="Path 4883" d="M1343.006,899.864c20.988-12.118,29.514-26.866,19.046-32.95s-35.965-1.2-56.953,10.921-29.509,26.871-19.041,32.953S1322.023,911.979,1343.006,899.864Z" transform="translate(-1281.583 -864.298)" fill="url(#radial-gradient)"/>
        </g>
      </g>
      <g id="Group_2484" data-name="Group 2484" transform="translate(12.504)">
        <g id="Group_2483" data-name="Group 2483">
          <g id="Group_2476" data-name="Group 2476" transform="translate(0 138.173)">
            <g id="Group_2472" data-name="Group 2472" transform="translate(0 117.892)">
              <path id="Path_4884" data-name="Path 4884" d="M1300.137,893.54c1.105-.024,4.83-3.526,8.359-1.758,4.238,2.124,12.283.243,16.344,1.219.723.173,2.137-.359,2.416.137.876,1.555,1.722,3.883-.429,5.4a36.868,36.868,0,0,1-7.2,3.39,60.675,60.675,0,0,1-9.1,2.576c-3,.47-4.365.662-5.487,1.529a7.983,7.983,0,0,1-4.186,1.007,7.058,7.058,0,0,1-5.337-3.726c-.337-.72-.347-3.867.042-5.908a29.834,29.834,0,0,1,1.887-5.158Z" transform="translate(-1295.149 -884.777)" fill="#fff"/>
              <path id="Path_4885" data-name="Path 4885" d="M1308.991,885.463c-1.341,3.219-.929,8.2-4.106,9.927-2.124,1.156-5.45,1.166-6.9-2.135-.808-1.84.266-4.984.028-9.025Z" transform="translate(-1295.336 -884.23)" fill="#ffa495"/>
              <path id="Path_4886" data-name="Path 4886" d="M1309.677,890.74c2.434.708,9.155.234,13.4.577,1.826.148,3.465.135,4.318,1.793.786,1.525.374,2.832-1.4,4.09a30.088,30.088,0,0,1-6.491,3.185,60.825,60.825,0,0,1-9.1,2.576c-3,.47-4.365.662-5.487,1.529a7.991,7.991,0,0,1-4.186,1.007,7.369,7.369,0,0,1-5.337-3.961c-.337-.72-.347-3.632.042-5.673a10.59,10.59,0,0,1,.312-1.2c.335-3.2,1.391-4.491,2.386-3.944a6.151,6.151,0,0,1,2.395,3.206,3.128,3.128,0,0,0,1.852,1.766c1.629.514,3.117-.395,4.08-1.793a11.512,11.512,0,0,0,1.117-3.24c.005-.109.007-.218,0-.325.32-2.8,1.68-2.552,1.473-1.963A2.407,2.407,0,0,0,1309.677,890.74Z" transform="translate(-1295.139 -884.522)" fill="#193161"/>
              <path id="Path_4887" data-name="Path 4887" d="M1329.19,893c-.032,1.081,1.624,1.183,1.145,3.082.8-.78-.315-3.021-.806-3.361C1329.327,892.579,1329.155,892.522,1329.19,893Z" transform="translate(-1297.778 -884.88)" fill="#fff"/>
            </g>
            <g id="Group_2473" data-name="Group 2473" transform="translate(27.458 104.792)">
              <path id="Path_4888" data-name="Path 4888" d="M1330.3,880.894c1.029-.4,3.323-4.972,7.243-4.527a19.938,19.938,0,0,0,6.706-.967c4.116-1.17,9.852-4.849,10.83-4.247,2.133,1.312,2.3,3.7.807,5.873a30.1,30.1,0,0,1-5,5.225,52.852,52.852,0,0,1-7.057,5.368c-2.264,1.256-3.016,1.144-4.627,3.322a7.559,7.559,0,0,1-3.583,2.268,8.521,8.521,0,0,1-7-2.628c-.782-2.531-2.139-4.929-1.269-8.727Z" transform="translate(-1325.072 -870.111)" fill="#fff"/>
              <path id="Path_4889" data-name="Path 4889" d="M1335.565,870.029c-.063,3.486,2.151,7.966-.168,10.741-1.55,1.855-4.639,3.088-7.2.553-1.429-1.415-1.587-4.734-3.293-8.4Z" transform="translate(-1324.904 -870.029)" fill="#ffa495"/>
              <path id="Path_4890" data-name="Path 4890" d="M1343.148,874.327c.233-.062.469-.126.7-.193,4.116-1.17,9.617-4.006,10.594-3.4,2.133,1.312,2.539,2.861,1.042,5.03a30.1,30.1,0,0,1-5,5.225,52.778,52.778,0,0,1-7.057,5.368c-2.264,1.255-3.016,1.144-4.626,3.322a7.573,7.573,0,0,1-3.584,2.268,8.746,8.746,0,0,1-7.1-2.643,21,21,0,0,1-1.444-6.048c-.343-3.1-.13-4.677,1.219-4.638,2.509.073,3.543,1.395,4.58,2.041,2.232,1.392,3.727-.406,4.092-2.631a13.023,13.023,0,0,0-.2-2.94c-.035-.1-.074-.206-.115-.305-.731-2.717.624-2.989.647-2.366a2.331,2.331,0,0,0,2.071,2.374C1340.323,874.991,1342.046,874.421,1343.148,874.327Z" transform="translate(-1325.03 -870.077)" fill="#193161"/>
              <path id="Path_4891" data-name="Path 4891" d="M1356.51,871.078c.436.99,1.974.368,2.361,2.288.383-1.047-1.586-2.589-2.176-2.685C1356.453,870.642,1356.273,870.663,1356.51,871.078Z" transform="translate(-1327.346 -870.079)" fill="#fff"/>
            </g>
            <g id="Group_2474" data-name="Group 2474" transform="translate(11.503)">
              <path id="Path_4892" data-name="Path 4892" d="M1331.853,767.071c.9,10.1,5.964,42.362,4.556,51.218-2.118,13.318-1.514,29.407-1.49,43.542-.358,5.94-8.524,9.043-10.9,5.269-1.909-12.63-4.623-23.7-5.728-30.715-1.236-7.859-.828-17.409,1.167-22.575-.818-5.643-4.666-20.2-7.88-30.287-1.16-3.641-7.732-15.4-.93-27.093Z" transform="translate(-1307.608 -756.43)" fill="#0d057a"/>
              <path id="Path_4893" data-name="Path 4893" d="M1336.39,866.58c.006,1.048-.032,2.645-.03,3.674-.358,5.939-8.626,9.16-11,5.386-.14-.931-.344-1.853-.493-2.766C1328.06,876.319,1334.324,871.844,1336.39,866.58Z" transform="translate(-1308.946 -764.97)" fill="url(#linear-gradient-27)"/>
              <path id="Path_4894" data-name="Path 4894" d="M1337.314,813.4c-2.662,13.356-10.193,31.2-14.3,44.625-2.14-11.506-7.5-31.1-2.863-43.093-.466-3.214-1.915-9.319-3.67-15.843,3.563-6.757.158-12.149,1.84-21.664,9.435-1.644-4.805-13.16,15.161-1.031C1335.263,790.727,1336.94,799.74,1337.314,813.4Z" transform="translate(-1308.296 -757.552)" fill="#1e2353" opacity="0.3" style="mix-blend-mode: multiply;isolation: isolate"/>
            </g>
            <g id="Group_2475" data-name="Group 2475" transform="translate(1.473 6.122)">
              <path id="Path_4895" data-name="Path 4895" d="M1330.374,825.461c-5.443,12.32-15.485,36.493-20.826,51.615-2.764,4.016-12.616,3.6-12.6-.149,2.175-12.642,4.732-32.143,9.271-43.232,1.389-3.394,6.515-11.559,8.362-13.983,1.436-5.581,3.235-20.651,4.624-28.807-1.245-6.749-6.689-18.032,3.769-27.839,4.219,3,17.266,4.879,23.182,1.537C1347.115,791.26,1340.571,802.376,1330.374,825.461Z" transform="translate(-1296.753 -763.067)" fill="#1c1a92"/>
              <path id="Path_4896" data-name="Path 4896" d="M1310.638,883.8c-.238.66-.711,2-.934,2.628-2.845,4.134-12.987,3.7-12.968-.153q.161-.937.325-1.922C1299.479,886.819,1306.793,886.853,1310.638,883.8Z" transform="translate(-1296.736 -772.428)" fill="url(#linear-gradient-28)"/>
            </g>
          </g>
          <g id="Group_2478" data-name="Group 2478" transform="translate(10.428)">
            <g id="Group_2477" data-name="Group 2477" transform="translate(41.671)">
              <path id="Path_4897" data-name="Path 4897" d="M1367.982,607.733c-.387.816-.758,1.642-1.162,2.45l-1.665,3.33c-.355-1.633-1.658-2.257-2.659-1.434a2.859,2.859,0,0,0-.812,1.089c-.159-.446-1.42-1.449-3.125.974a1.87,1.87,0,0,0-2.072,1.194,13.493,13.493,0,0,0-.715,1.745,7.014,7.014,0,0,0-.5,2.365c.011,1.606.08,3.348.034,5.266-.049,2.081-2.41,4.717-3.693,6.236l7.728,2.45a43.112,43.112,0,0,1,3.01-3.762c1.212-1.228,2.745-1.375,3.9-2.324a14.832,14.832,0,0,0,2.119-2.791c.911-1.29,1.409-2.685,2.279-4.1.846-1.461.8-1.139.881-2.778a29.8,29.8,0,0,1,.579-3.284c-1.587-.792-2.838,1.169-2.826,3.078a4.746,4.746,0,0,0-1.713,2.325c-1.262-1.65-.51-2.34,0-4.461a21.309,21.309,0,0,0,1.819-4.254c.246-.653.493-1.329.757-2.06a2.049,2.049,0,0,0-.459-2.265C1369.394,606.531,1368.628,606.62,1367.982,607.733Z" transform="translate(-1351.616 -606.644)" fill="url(#linear-gradient-29)"/>
              <path id="Path_4898" data-name="Path 4898" d="M1371.668,614.687c-1.128.163-1.925,1.719-1.915,3.244a4.624,4.624,0,0,0-1.668,2.208,10.455,10.455,0,0,1,2.03-2.021,4.839,4.839,0,0,1,1.552-3.432Zm-5.9-.969-.144.287a2.914,2.914,0,0,0-.421-1.024,4.131,4.131,0,0,1-1.1,2.451,2.758,2.758,0,0,0,1.666-1.714Zm-3.625-.084a.949.949,0,0,0-.409-.416,6.536,6.536,0,0,1-.868,2.214,3.692,3.692,0,0,0,1.277-1.8Zm-3.079.948-.036.051a2.656,2.656,0,0,0-.494-.011,5.037,5.037,0,0,1-.9,2.476A4,4,0,0,0,1359.061,614.582Z" transform="translate(-1352.082 -607.136)" fill="#ff8978"/>
            </g>
            <path id="Path_4899" data-name="Path 4899" d="M1335.3,654.012c3.889-6.777,6.935-15.267,12.369-22.149.454-.574,1.518-1.013,1.91-1.617q.851-1.314,1.694-2.582a12.06,12.06,0,0,1,7.823,3.526q-.458,1.362-.9,2.71c-.344,1.047.316,3.285.018,4.333a174.388,174.388,0,0,1-9.529,25.96c-5.391,6.953-29.343,51.584-41.866,35.39-1.127-5.761.4-10.553,3.3-15.215a41.307,41.307,0,0,1,5.683-6.534C1319.734,673.749,1329.385,660.108,1335.3,654.012Z" transform="translate(-1306.443 -608.274)" fill="url(#linear-gradient-30)"/>
          </g>
          <path id="Path_4900" data-name="Path 4900" d="M1308.641,725.7c.877,7.9-1.5,15.676.92,22.891.109.745.177,3.67.305,4.467,1.593,9.346,21.364,18.805,37.854,9.837.09-1.159-.015-2.371.076-4.517-.305-2,.561-4.154.555-5.376-.024-5.086-1.607-7.688-.848-13.348,1.545-11.515,7.925-22.582,4.4-31.642-.757-1.945-2.085-2.886-3.587-4.095-3.9-3.13-24.052-13.393-30.161-14.118C1300.411,687.5,1307.69,717.128,1308.641,725.7Z" transform="translate(-1296.009 -613.082)" fill="url(#linear-gradient-31)"/>
          <path id="Path_4901" data-name="Path 4901" d="M1352,732.446c2.287-8.463,5.275-16.451,2.61-23.3-.757-1.945-2.085-2.886-3.587-4.095-3.9-3.13-3.381,5.289-9.49,4.564C1340.36,720.87,1345.921,731.1,1352,732.446Z" transform="translate(-1298.724 -614.22)" fill="#6266d7" opacity="0.35" style="mix-blend-mode: multiply;isolation: isolate"/>
          <g id="Group_2481" data-name="Group 2481" transform="translate(14.242 43.039)">
            <path id="Path_4902" data-name="Path 4902" d="M1337.227,683.823a43.453,43.453,0,0,0,.448,9.705c-5.777-.188-13.8-1.7-14.68-6,.041-.516.078-1.039.1-1.552a1.925,1.925,0,0,0-.236-.185c-2.071-1.377-5.5-2.4-7.7-4.918-3.52-4.026-5.391-9.433-2.628-14.876,5.045-9.939,17.247-10.107,24.042-2.071,1.327,1.569.355,3.195,1.111,4.71.148.3.69.428,1.32.947.871.719,3.406,6.931,3.34,10.175-.027,1.306-3.028,3.146-4.36,3.867A3.523,3.523,0,0,1,1337.227,683.823Z" transform="translate(-1310.626 -653.68)" fill="#ffa698"/>
            <path id="Path_4903" data-name="Path 4903" d="M1338.08,685.612a43.453,43.453,0,0,0,.448,9.705c-5.777-.188-13.8-1.7-14.68-6,.041-.516.078-1.039.1-1.552-.078-.071-.166-.121-.236-.185-4.389-4.11,1.482-8.819,8.9-4.762A5.752,5.752,0,0,0,1338.08,685.612Z" transform="translate(-1311.479 -655.469)" fill="url(#linear-gradient-32)"/>
            <path id="Path_4904" data-name="Path 4904" d="M1344.147,679.971c-.027.571-2.391,1.431-3.38,1.565.674-6.139-5.17-7.077-4.289-13.071.529-3.6-3.176-4.906-1.722-7.542a16.8,16.8,0,0,1,3.62,3.217c1.327,1.569.355,3.195,1.111,4.71.148.3.69.428,1.32.947C1341.678,670.515,1344.3,676.73,1344.147,679.971Z" transform="translate(-1312.425 -653.892)" fill="url(#linear-gradient-33)"/>
            <g id="Group_2479" data-name="Group 2479" transform="translate(21.803 22.163)">
              <path id="Path_4905" data-name="Path 4905" d="M1336.169,678.748c-.113-1.373-.67-1.638-1.131-1.273a3.686,3.686,0,0,0-.8,3c.224,2.281,2.339,4.325,3.8,2.48-1.592.845-2.344-1.2-2.411-2.639C1335.576,679.342,1335.824,678.52,1336.169,678.748Z" transform="translate(-1334.212 -677.327)" fill="#ffb49c"/>
              <path id="Path_4906" data-name="Path 4906" d="M1335.782,679.82c.848.643,1.239,1.077,1.225,1.436-.008.251-.219.628-.963.364A3.233,3.233,0,0,1,1335.782,679.82Z" transform="translate(-1334.332 -677.52)" fill="#ff9d8e"/>
            </g>
            <path id="Path_4907" data-name="Path 4907" d="M1323.654,689.827c-1.709.528-3.306,2.285-2.994,3.412,1.7,6.954,14.448,8.507,22.374,6.832.1-.019-2.967-4.07-4.484-4.562C1333.562,696,1325.193,693.933,1323.654,689.827Z" transform="translate(-1311.356 -656.133)" fill="url(#linear-gradient-12)"/>
            <g id="Group_2480" data-name="Group 2480">
              <path id="Path_4908" data-name="Path 4908" d="M1322.263,686.564c-2.113-2.255-5.689-3.332-7.984-5.955-2.263-2.588-4.74-6.559-3.228-10.639-2.666-8.382,6.444-15.028,14.114-16.539a5.96,5.96,0,0,1,6.387,8.789,8.041,8.041,0,0,1,1.845,6.127c-.439,2.392-.377,2.695.388,4.486.6,1.414,2.111,4.833-.616,2.669-1.762-1.4-2.994,1.692-2.4,3.829a9.777,9.777,0,0,1,.383,4.132C1330.642,687.948,1323.439,687.819,1322.263,686.564Z" transform="translate(-1310.577 -653.301)" fill="url(#linear-gradient-35)"/>
              <path id="Path_4909" data-name="Path 4909" d="M1313.831,666.222c-1.817-8.118,8.855-12.227,13.031-12.323,4.225-.1,7.536,6.854,2.526,9.2C1325.972,664.691,1319.208,661.568,1313.831,666.222Z" transform="translate(-1310.813 -653.347)" fill="url(#linear-gradient-36)"/>
            </g>
          </g>
          <g id="Group_2482" data-name="Group 2482" transform="translate(40.677 61.404)">
            <path id="Path_4910" data-name="Path 4910" d="M1402.877,680.613a5.515,5.515,0,0,0-.344,1.64,13.124,13.124,0,0,0-.794,2.49,23.146,23.146,0,0,0-.2,4.1,9.02,9.02,0,0,0,.357,2.518c-1.025,2-2.637,3.238-4.144,4.892l4.88,3.721c2.059-1.358,3.667-2.784,5.439-3.963a5.983,5.983,0,0,0,2.375-1.341c1.13-1.178,4.458-4.679,4.648-6.054a31.341,31.341,0,0,0-.541-7c-.882-4.944-2.766-10.14-3.089-7.846-.471.549-.086,5.017-.384,5.681-1.155,1.329-1.707,1.876-3.153,3.461a16.535,16.535,0,0,1-1.922,1.162c-.5.135-.774-.213-.792-.651a20.973,20.973,0,0,1,.552-2.636c0-2.119-.526-3.32-1.659-3.208a1.12,1.12,0,0,0-1.063.991C1402.927,679.062,1402.958,679.747,1402.877,680.613Z" transform="translate(-1343.772 -673.21)" fill="url(#linear-gradient-37)"/>
            <path id="Path_4911" data-name="Path 4911" d="M1349.159,702.913c6.718,1.037,19.68,8.426,28.625,12.434,4.989-7.109,11.534-15.629,15.572-18.5a13.431,13.431,0,0,0,2.008-1.442q.879-1.076,1.71-2.215c2.522.351,6.178,3.5,6.13,4.989-.407.744-.821,1.521-1.241,2.324a15.33,15.33,0,0,0-.352,2.37c-1.37,4.978-8.921,16.476-12.441,21.605-2.035,2.964-2.75,4.7-4.127,5.589-2.21,1.42-5.176.645-10.891-.792-4.809-1.208-20.335-4.033-27.479-7.8-5.037-2.658-8.9-7.447-6.9-12.959A8.677,8.677,0,0,1,1349.159,702.913Z" transform="translate(-1339.235 -674.759)" fill="url(#linear-gradient-38)"/>
          </g>
        </g>
      </g>
    </g>
  </g>
</svg>
