<svg xmlns="http://www.w3.org/2000/svg" viewBox="0 0 431 431"><defs><style>.cls-1{fill:#f7f7f7;}.cls-2{opacity:0.56;}.cls-3{fill:#9a5c8e;}.cls-4{fill:#fff;}.cls-5{opacity:0.57;}</style></defs><g id="Layer_2" data-name="Layer 2"><g id="Layer_1-2" data-name="Layer 1"><rect class="cls-1" width="431" height="431" rx="12.75"/><g class="cls-2"><path class="cls-3" d="M98.37,157.83h82.91a9.5,9.5,0,0,1,9.5,9.5V199a9.49,9.49,0,0,1-9.5,9.49H151.55l4.08,10-17.95-10H98.41A9.49,9.49,0,0,1,88.92,199V167.33a9.45,9.45,0,0,1,9.45-9.5Z"/><path class="cls-4" d="M94.72,166.48a3.34,3.34,0,0,1,2.61-1.28q3.17-.24,3.6,3c1.28,8.66,2.69,16,4.18,22l9.07-17.27c.83-1.57,1.86-2.4,3.1-2.48,1.83-.13,2.94,1,3.4,3.48a78.3,78.3,0,0,0,3.93,14.16q1.62-15.78,5.47-22.78a3.17,3.17,0,0,1,2.73-1.82,3.63,3.63,0,0,1,2.61.83,3.22,3.22,0,0,1,1.28,2.36,3.53,3.53,0,0,1-.41,2c-1.61,3-2.94,8-4,15a78.06,78.06,0,0,0-1.16,15.77,4.91,4.91,0,0,1-.49,2.74,2.69,2.69,0,0,1-2.2,1.49,4.19,4.19,0,0,1-3.27-1.54q-5.78-5.9-9.15-17.64-4,8-6,11.93-3.66,7-6.25,7.2c-1.12.09-2.07-.87-2.9-2.85q-3.17-8.15-6.84-31.43A3.57,3.57,0,0,1,94.72,166.48Zm89,6.51a9.53,9.53,0,0,0-6.62-4.81,11.38,11.38,0,0,0-2.24-.25c-4,0-7.2,2.07-9.73,6.21a22,22,0,0,0-3.23,11.68,16,16,0,0,0,2,8.2,9.51,9.51,0,0,0,6.62,4.8,10.67,10.67,0,0,0,2.24.25c4,0,7.25-2.07,9.73-6.21a22.21,22.21,0,0,0,3.23-11.72A15.21,15.21,0,0,0,183.7,173Zm-5.22,11.47a10.86,10.86,0,0,1-3.14,6.12,4,4,0,0,1-3.36,1.33c-1-.21-1.82-1.08-2.44-2.69a10.47,10.47,0,0,1-.74-3.77,14.13,14.13,0,0,1,.29-3,13.27,13.27,0,0,1,2.19-4.93c1.37-2,2.82-2.86,4.31-2.57,1,.21,1.82,1.08,2.44,2.69a10.47,10.47,0,0,1,.74,3.77A14.42,14.42,0,0,1,178.48,184.46ZM157.78,173a9.63,9.63,0,0,0-6.62-4.81,11.38,11.38,0,0,0-2.24-.25c-4,0-7.21,2.07-9.73,6.21A22,22,0,0,0,136,185.82a16,16,0,0,0,2,8.2,9.51,9.51,0,0,0,6.62,4.8,10.6,10.6,0,0,0,2.24.25c4,0,7.24-2.07,9.73-6.21a22.21,22.21,0,0,0,3.23-11.72A15.58,15.58,0,0,0,157.78,173Zm-5.26,11.47a10.93,10.93,0,0,1-3.14,6.12c-1.21,1.08-2.32,1.54-3.36,1.33s-1.82-1.08-2.44-2.69a10.49,10.49,0,0,1-.75-3.77,14.81,14.81,0,0,1,.29-3,13.46,13.46,0,0,1,2.2-4.93c1.36-2,2.81-2.86,4.3-2.57,1,.21,1.83,1.08,2.45,2.69a10.69,10.69,0,0,1,.74,3.77,12.22,12.22,0,0,1-.29,3.07Z"/></g><g class="cls-5"><path d="M106.89,242.49a8.05,8.05,0,0,1,0,11.76,10.66,10.66,0,0,1-7,2.12h-6.8v7.79H91.32v-23.8h8.53A10.66,10.66,0,0,1,106.89,242.49Zm-1.23,10.65a6.65,6.65,0,0,0,0-9.53,8.81,8.81,0,0,0-5.81-1.69h-6.8v12.89h6.8A8.86,8.86,0,0,0,105.66,253.14Z"/><path d="M118.38,247.31a8.1,8.1,0,0,1,4.22-1v1.66l-.41,0a5.93,5.93,0,0,0-4.63,1.85,7.43,7.43,0,0,0-1.66,5.15v9.25h-1.7V246.41h1.63v3.88A6.12,6.12,0,0,1,118.38,247.31Z"/><path d="M129.52,263.14a8.31,8.31,0,0,1-3.18-3.21,9.86,9.86,0,0,1,0-9.28,8.27,8.27,0,0,1,3.18-3.22,9.52,9.52,0,0,1,9.07,0,8.27,8.27,0,0,1,3.18,3.22,9.86,9.86,0,0,1,0,9.28,8.31,8.31,0,0,1-3.18,3.21,9.44,9.44,0,0,1-9.07,0Zm8.19-1.33a6.71,6.71,0,0,0,2.55-2.65,8.46,8.46,0,0,0,0-7.75,6.77,6.77,0,0,0-2.55-2.65,7.51,7.51,0,0,0-7.31,0,6.77,6.77,0,0,0-2.55,2.65,8.46,8.46,0,0,0,0,7.75,6.71,6.71,0,0,0,2.55,2.65,7.44,7.44,0,0,0,7.31,0Z"/><path d="M164,238.93v25.23h-1.66V260a7.56,7.56,0,0,1-3,3.19A8.34,8.34,0,0,1,155,264.3a8.86,8.86,0,0,1-4.49-1.16,8.32,8.32,0,0,1-3.14-3.2,9.37,9.37,0,0,1-1.14-4.65,9.48,9.48,0,0,1,1.14-4.68,8.1,8.1,0,0,1,3.14-3.19,9,9,0,0,1,4.49-1.14,8.18,8.18,0,0,1,4.27,1.12,7.93,7.93,0,0,1,3,3.13v-11.6Zm-5.18,22.88a6.71,6.71,0,0,0,2.55-2.65,8.54,8.54,0,0,0,0-7.75,6.77,6.77,0,0,0-2.55-2.65,7.51,7.51,0,0,0-7.31,0,6.77,6.77,0,0,0-2.55,2.65,8.46,8.46,0,0,0,0,7.75,6.71,6.71,0,0,0,2.55,2.65,7.44,7.44,0,0,0,7.31,0Z"/><path d="M186.69,246.41v17.75h-1.64v-3.81a6.59,6.59,0,0,1-2.61,2.91,7.83,7.83,0,0,1-4.08,1,6.81,6.81,0,0,1-7.42-7.52V246.41h1.7v10.24a6.24,6.24,0,0,0,1.53,4.55,5.74,5.74,0,0,0,4.32,1.57,6.22,6.22,0,0,0,4.75-1.87,7.12,7.12,0,0,0,1.75-5v-9.45Z"/><path d="M196.31,263.14a8.3,8.3,0,0,1-3.2-3.21,10,10,0,0,1,0-9.32,8.11,8.11,0,0,1,3.2-3.19,9.31,9.31,0,0,1,4.62-1.14,8.91,8.91,0,0,1,3.9.83,7,7,0,0,1,2.83,2.43l-1.25.92a6,6,0,0,0-2.37-2,7.22,7.22,0,0,0-3.11-.66,7.44,7.44,0,0,0-3.72.93,6.62,6.62,0,0,0-2.58,2.64,8.6,8.6,0,0,0,0,7.82,6.6,6.6,0,0,0,2.58,2.63,7.35,7.35,0,0,0,3.72.94,7.23,7.23,0,0,0,3.11-.67,6,6,0,0,0,2.37-2l1.25.92a6.94,6.94,0,0,1-2.83,2.43,8.92,8.92,0,0,1-3.9.84A9.21,9.21,0,0,1,196.31,263.14Z"/><path d="M221.77,263a4.19,4.19,0,0,1-1.61.93,6.24,6.24,0,0,1-2,.33,4.77,4.77,0,0,1-3.57-1.28,4.83,4.83,0,0,1-1.26-3.55v-11.6H210v-1.46h3.27v-3.87H215v3.87h5.64v1.46H215V259.3a3.72,3.72,0,0,0,.83,2.63,3.21,3.21,0,0,0,2.47.9,3.93,3.93,0,0,0,2.75-1Z"/><path d="M234.83,240.36h4.42v23.8h-4.42Z"/><path d="M273.62,247.79c1.34,1.33,2,3.31,2,6v10.4h-4.25V254.3a5.29,5.29,0,0,0-1.06-3.59,3.8,3.8,0,0,0-3-1.2,4.46,4.46,0,0,0-3.44,1.41,5.76,5.76,0,0,0-1.29,4v9.21h-4.25V254.3a5.34,5.34,0,0,0-1.05-3.59,3.81,3.81,0,0,0-3-1.2,4.44,4.44,0,0,0-3.45,1.39,5.8,5.8,0,0,0-1.27,4v9.21h-4.25V246h4v2.32a6.56,6.56,0,0,1,2.55-1.87,8.69,8.69,0,0,1,3.4-.65,8.06,8.06,0,0,1,3.62.77,5.82,5.82,0,0,1,2.5,2.26,7.48,7.48,0,0,1,2.89-2.23,9.46,9.46,0,0,1,3.91-.8A7.36,7.36,0,0,1,273.62,247.79Z"/><path d="M294.14,247.72q2.13,1.92,2.13,5.8v10.64h-4V262a5,5,0,0,1-2.22,1.82,8.74,8.74,0,0,1-3.49.63,8.46,8.46,0,0,1-3.57-.7,5.43,5.43,0,0,1-2.36-1.94,4.85,4.85,0,0,1-.83-2.8A4.8,4.8,0,0,1,281.6,255q1.81-1.49,5.72-1.48H292v-.27a3.71,3.71,0,0,0-1.14-2.92,4.94,4.94,0,0,0-3.39-1,9.9,9.9,0,0,0-3,.47,7.35,7.35,0,0,0-2.5,1.33l-1.67-3.1a10.34,10.34,0,0,1,3.43-1.66,15.15,15.15,0,0,1,4.25-.58A8.86,8.86,0,0,1,294.14,247.72Zm-3.87,12.85a4,4,0,0,0,1.75-2.09v-2.11h-4.39q-3.67,0-3.67,2.42a2.14,2.14,0,0,0,.92,1.83,4.16,4.16,0,0,0,2.55.68A5.49,5.49,0,0,0,290.27,260.57Z"/><path d="M319.9,246v15.41q0,9.58-9.8,9.58a18.23,18.23,0,0,1-5-.66,10.53,10.53,0,0,1-3.88-1.92l1.91-3.2a8.83,8.83,0,0,0,3,1.58,11.69,11.69,0,0,0,3.69.6,6.07,6.07,0,0,0,4.38-1.36,5.57,5.57,0,0,0,1.4-4.15v-.95a7.05,7.05,0,0,1-2.66,1.8,9.26,9.26,0,0,1-3.43.61,9.78,9.78,0,0,1-4.67-1.1,8.24,8.24,0,0,1-3.3-3.11,9.29,9.29,0,0,1,0-9.17,8.14,8.14,0,0,1,3.3-3.07,9.9,9.9,0,0,1,4.67-1.09,9.64,9.64,0,0,1,3.59.65,6.62,6.62,0,0,1,2.7,2V246Zm-5.73,12.29a4.89,4.89,0,0,0,1.54-3.75,4.81,4.81,0,0,0-1.54-3.71,6.25,6.25,0,0,0-8,0,4.82,4.82,0,0,0-1.55,3.71,4.89,4.89,0,0,0,1.55,3.75,6.19,6.19,0,0,0,8,0Z"/><path d="M342.47,256.44H328.22a5,5,0,0,0,2,3.18,6.41,6.41,0,0,0,3.93,1.17,6.62,6.62,0,0,0,4.93-2l2.27,2.62a7.56,7.56,0,0,1-3.09,2.21,12.26,12.26,0,0,1-9.49-.44,8.52,8.52,0,0,1-3.51-3.32,9.32,9.32,0,0,1-1.25-4.81,9.57,9.57,0,0,1,1.21-4.78,8.6,8.6,0,0,1,3.35-3.31,9.82,9.82,0,0,1,4.83-1.19A9.52,9.52,0,0,1,338.1,247a8.31,8.31,0,0,1,3.27,3.3,10,10,0,0,1,1.17,4.91C342.54,255.48,342.52,255.9,342.47,256.44Zm-12.56-6a5,5,0,0,0-1.72,3.21h10.3a5,5,0,0,0-1.66-3.2,5.53,5.53,0,0,0-6.92,0Z"/></g></g></g></svg>