<svg xmlns="http://www.w3.org/2000/svg" viewBox="0 0 744.57 736.41"><g id="Layer_2" data-name="Layer 2"><g id="Layer_1-2" data-name="Layer 1"><path d="M717.07,220.7V625.6a83.31,83.31,0,0,1-83.31,83.31H110.82A83.32,83.32,0,0,1,27.5,625.59V110.81A83.31,83.31,0,0,1,110.81,27.5H369.7a46.41,46.41,0,0,1,46.41,46.41v54a46.41,46.41,0,0,0,46.41,46.41H670.66A46.41,46.41,0,0,1,717.07,220.7Z" style="fill:none;stroke:#fff;stroke-linecap:round;stroke-linejoin:round;stroke-width:55px"/><line x1="172.34" y1="378.37" x2="572.23" y2="378.37" style="fill:none;stroke:#fff;stroke-linecap:round;stroke-linejoin:round;stroke-width:55px"/><line x1="172.34" y1="554.64" x2="572.23" y2="554.64" style="fill:none;stroke:#fff;stroke-linecap:round;stroke-linejoin:round;stroke-width:55px"/><line x1="151.74" y1="224.15" x2="286.22" y2="224.15" style="fill:none;stroke:#f0bdad;stroke-linecap:round;stroke-linejoin:round;stroke-width:55px"/></g></g></svg>