<svg xmlns="http://www.w3.org/2000/svg" viewBox="0 0 94.42 85.57"><defs><style>.cls-1{fill:#93c2a0;}.cls-2{fill:#414042;}.cls-3{fill:none;stroke:#877083;stroke-linecap:round;stroke-linejoin:round;stroke-width:7.99px;}</style></defs><g id="Layer_2" data-name="Layer 2"><g id="Layer_1-2" data-name="Layer 1"><rect class="cls-1" x="32.83" y="58.53" width="26.47" height="23.63" rx="4.2"/><path class="cls-2" d="M94.42,32.75a17.5,17.5,0,0,0-.88-5.61h0c0-.3,0-.3-.3-.59l-8-19.77A10.3,10.3,0,0,0,75.24,0H19.18c-4.72,0-8.26,2.36-9.74,6.49L.89,26.84v.59A19.11,19.11,0,0,0,0,33.34,18,18,0,0,0,5.91,46.91v29.8a8.88,8.88,0,0,0,8.85,8.86h64a8.88,8.88,0,0,0,8.86-8.86V48.09c4.11-4.42,6.77-9.73,6.77-15.34ZM78.78,77.89h-64A1.7,1.7,0,0,1,13,76.12V50.45a19.59,19.59,0,0,0,6.19.88,17.77,17.77,0,0,0,14.17-6.78,18.36,18.36,0,0,0,14.16,6.5,17.71,17.71,0,0,0,14.16-6.79,19.29,19.29,0,0,0,14.47,6.79,23.32,23.32,0,0,0,4.72-.59V75.83a2.47,2.47,0,0,1-2.07,2.06Zm2.66-34.81a11.26,11.26,0,0,1-5.6,1.18,11.49,11.49,0,0,1-10-5.6c-.3-.3-.3-.89-.89-1.48a4.2,4.2,0,0,0-3.25-1.47,3.77,3.77,0,0,0-3.24,1.47,4,4,0,0,0-.89,1.48,11.78,11.78,0,0,1-20.06,0c-.3-.3-.3-.89-.89-1.19-1.47-1.77-5.31-1.77-6.49,0a2.76,2.76,0,0,0-.89,1.47,11.48,11.48,0,0,1-10,5.61,11.26,11.26,0,0,1-5.6-1.18h0a12,12,0,0,1-6.2-10.63A17.51,17.51,0,0,1,8,28.9v-.28L16.52,8.55c.3-.59.59-2.07,3.25-2.07H75.84a3.41,3.41,0,0,1,3.54,2.07l8,19.77v.3a17,17,0,0,1,.59,3.83,13,13,0,0,1-6.5,10.63Z"/><line class="cls-3" x1="26.7" y1="23.26" x2="67.12" y2="23.26"/></g></g></svg>