<svg xmlns="http://www.w3.org/2000/svg" viewBox="0 0 88.26 71.5"><defs><style>.cls-1{fill:#93a8c1;}.cls-2{fill:none;stroke:#414042;stroke-linecap:round;stroke-linejoin:round;stroke-width:4.77px;}</style></defs><g id="Layer_2" data-name="Layer 2"><g id="Layer_1-2" data-name="Layer 1"><rect class="cls-1" x="18.42" y="47.98" width="52.49" height="10.1"/><rect class="cls-1" x="18.42" y="30.78" width="52.49" height="10.1"/><path class="cls-2" d="M18.72,26.19l-8.17,5.08Q6.47,23,2.38,14.76A36.62,36.62,0,0,1,17.7,4.09c6.44-2.24,9.07-.89,25-1C59.3,2.94,61.37,1.44,68,3.33A40.16,40.16,0,0,1,85.87,14.51q-3.7,8.25-7.4,16.51l-8.39-4.83,1.24,42.93L17.7,68.61Z"/><path class="cls-2" d="M32.24,3a14.46,14.46,0,0,0,3.84,8.51c.91.93,4.23,4.38,8.94,4.07,5.81-.4,8.84-6.21,9.45-7.38A18.46,18.46,0,0,0,56.29,2.6"/></g></g></svg>